<?xml version="1.0" standalone="no"?>
 <!DOCTYPE svg PUBLIC "-//W3C//DTD SVG 1.1//EN" 
 "http://www.w3.org/Graphics/SVG/1.1/DTD/svg11.dtd"> 
<svg xmlns="http://www.w3.org/2000/svg" version="1.1" 
    width="29.7002cm" height="21.0007cm" viewBox="0 0 116930 82680 ">
<title>SVG Picture created as PwmBrick-F_SilkS.svg date 2020/11/29 12:29:36 </title>
  <desc>Picture generated by PCBNEW </desc>
<g style="fill:#000000; fill-opacity:1;stroke:#000000; stroke-opacity:1;
stroke-linecap:round; stroke-linejoin:round; "
 transform="translate(0 0) scale(1 1)">
</g>
<g style="fill:#000000; fill-opacity:0.0; 
stroke:#000000; stroke-width:-0.000393701; stroke-opacity:1; 
stroke-linecap:round; stroke-linejoin:round;">
</g>
<g style="fill:#000000; fill-opacity:0.0; 
stroke:#000000; stroke-width:39.3701; stroke-opacity:1; 
stroke-linecap:round; stroke-linejoin:round;">
</g>
<g style="fill:#000000; fill-opacity:1.0; 
stroke:#000000; stroke-width:39.3701; stroke-opacity:1; 
stroke-linecap:round; stroke-linejoin:round;">
<path style="fill:#000000; fill-opacity:1.0; 
stroke:#000000; stroke-width:39.3701; stroke-opacity:1; 
stroke-linecap:round; stroke-linejoin:round;fill-rule:evenodd;"
d="M 29133.9,36712.6
29055.1,36850.4
28897.6,36850.4
28897.6,36771.7
28917.3,36692.9
Z" /> 
<path style="fill:#000000; fill-opacity:1.0; 
stroke:#000000; stroke-width:39.3701; stroke-opacity:1; 
stroke-linecap:round; stroke-linejoin:round;fill-rule:evenodd;"
d="M 29133.9,36771.7
29035.4,36889.8
28917.3,36752
29015.7,36614.2
Z" /> 
</g>
<g style="fill:#000000; fill-opacity:1.0; 
stroke:#000000; stroke-width:47.2441; stroke-opacity:1; 
stroke-linecap:round; stroke-linejoin:round;">
</g>
<g style="fill:#000000; fill-opacity:0.0; 
stroke:#000000; stroke-width:47.2441; stroke-opacity:1; 
stroke-linecap:round; stroke-linejoin:round;">
<path d="M20503 8696
L19547 8696
" />
<path d="M19811 9905
L20503 9905
" />
<path d="M37771 7480
L37771 8838
" />
<path d="M37771 7480
L37771 6712
" />
<path d="M39787 7480
L39787 8248
" />
<path d="M39787 7480
L39787 6712
" />
<path d="M34472 7480
L34472 6122
" />
<path d="M34472 7480
L34472 8248
" />
<path d="M32456 7480
L32456 6712
" />
<path d="M32456 7480
L32456 8248
" />
<path d="M14779 12090
L14984 12090
" />
<path d="M14779 11531
L14984 11531
" />
<path d="M33031 13582
L33031 13031
" />
<path d="M33582 13582
L33031 13582
" />
<path d="M33582 13031
L33582 13582
" />
<path d="M33031 13031
L33582 13031
" />
<path d="M35078 14921
L35078 14370
" />
<path d="M35629 14921
L35078 14921
" />
<path d="M35629 14370
L35629 14921
" />
<path d="M35078 14370
L35629 14370
" />
<path d="M16432 7838
L16638 7838
" />
<path d="M16432 7279
L16638 7279
" />
<path d="M33872 14129
L33666 14129
" />
<path d="M33872 14688
L33666 14688
" />
<path d="M32318 14700
L32318 14906
" />
<path d="M32877 14700
L32877 14906
" />
<path d="M39511 12377
L39511 12677
" />
<path d="M39212 12377
L39511 12377
" />
<path d="M36610 14866
L36610 13291
" />
<path d="M36814 14866
L36610 14866
" />
<path d="M36814 13291
L36814 14866
" />
<path d="M36968 12850
L36956 12850
" />
<path d="M36962 12850
L36962 13291
" />
<path d="M37110 14866
L37110 13291
" />
<path d="M37314 14866
L37110 14866
" />
<path d="M37314 13291
L37314 14866
" />
<path d="M37468 12850
L37456 12850
" />
<path d="M37462 12850
L37462 13291
" />
<path d="M37610 14866
L37610 13291
" />
<path d="M37814 14866
L37610 14866
" />
<path d="M37814 13291
L37814 14866
" />
<path d="M37968 12850
L37956 12850
" />
<path d="M37962 12850
L37962 13291
" />
<path d="M38110 14866
L38110 13291
" />
<path d="M38314 14866
L38110 14866
" />
<path d="M38314 13291
L38314 14866
" />
<path d="M38468 12850
L38456 12850
" />
<path d="M38462 12850
L38462 13291
" />
<path d="M38610 14866
L38610 13291
" />
<path d="M38814 14866
L38610 14866
" />
<path d="M38814 13291
L38814 14866
" />
<path d="M38962 12976
L38962 13291
" />
<path d="M39149 13291
L39149 14866
" />
<path d="M39196 13291
L39196 14866
" />
<path d="M39244 13291
L39244 14866
" />
<path d="M39291 13291
L39291 14866
" />
<path d="M39110 14866
L39110 13291
" />
<path d="M39314 14866
L39110 14866
" />
<path d="M39314 13291
L39314 14866
" />
<path d="M36438 12850
L36468 12850
" />
<path d="M36438 13291
L36438 12850
" />
<path d="M39486 13291
L36438 13291
" />
<path d="M39486 12976
L39486 13291
" />
<path d="M14287 7538
L14287 9154
" />
<path d="M15633 7538
L15633 9154
" />
<path d="M36413 10212
L36413 10417
" />
<path d="M36972 10212
L36972 10417
" />
<path d="M30437 10417
L30437 10212
" />
<path d="M29877 10417
L29877 10212
" />
<path d="M30326 11618
L30461 11618
" />
<path d="M30326 11216
L30461 11216
" />
<path d="M27444 8169
L27444 6811
" />
<path d="M27444 8169
L27444 8937
" />
<path d="M25429 8169
L25429 7401
" />
<path d="M25429 8169
L25429 8937
" />
<path d="M27692 7983
L27692 8118
" />
<path d="M28094 7983
L28094 8118
" />
<path d="M36861 11618
L36996 11618
" />
<path d="M36861 11216
L36996 11216
" />
<path d="M28475 11637
L28610 11637
" />
<path d="M28475 11236
L28610 11236
" />
</g>
<g style="fill:#000000; fill-opacity:0.0; 
stroke:#000000; stroke-width:59.0551; stroke-opacity:1; 
stroke-linecap:round; stroke-linejoin:round;">
<path d="M26988 11889
L29340 11889
" />
<path d="M27588 14606
L29340 14606
" />
</g>
<g style="fill:#000000; fill-opacity:0.0; 
stroke:#000000; stroke-width:47.2441; stroke-opacity:1; 
stroke-linecap:round; stroke-linejoin:round;">
<path d="M30311 13298
L30311 13433
" />
<path d="M30712 13298
L30712 13433
" />
<path d="M31059 13318
L31059 13453
" />
<path d="M31460 13318
L31460 13453
" />
<path d="M23606 12685
L23606 12550
" />
<path d="M23204 12685
L23204 12550
" />
<path d="M26901 14858
L27035 14858
" />
<path d="M26901 15259
L27035 15259
" />
<path d="M25098 14980
L24822 14980
" />
<path d="M24822 12066
L25098 12066
" />
<path d="M24822 11771
L24822 12066
" />
<path d="M23897 14980
L24114 14980
" />
<path d="M23897 12066
L23897 14980
" />
<path d="M24114 12066
L23897 12066
" />
<path d="M24114 11771
L24114 12066
" />
<path d="M26023 14980
L25807 14980
" />
<path d="M26023 12066
L26023 14980
" />
<path d="M25807 12066
L26023 12066
" />
<path d="M19602 10920
L19602 11126
" />
<path d="M20161 10920
L20161 11126
" />
<path d="M21097 12336
L21303 12336
" />
<path d="M21097 11777
L21303 11777
" />
<path d="M38807 11704
L41350 11704
" />
<path d="M38807 9921
L38807 10944
" />
<path d="M38807 9161
L41350 9161
" />
<path d="M41350 9921
L41350 10944
" />
<path d="M38807 9173
L38807 9161
" />
<path d="M38807 11704
L38807 11692
" />
<path d="M41350 11704
L41350 11692
" />
<path d="M41350 9161
L41350 9173
" />
<path d="M32271 11704
L34814 11704
" />
<path d="M32271 9921
L32271 10944
" />
<path d="M32271 9161
L34814 9161
" />
<path d="M34814 9921
L34814 10944
" />
<path d="M32271 9173
L32271 9161
" />
<path d="M32271 11704
L32271 11692
" />
<path d="M34814 11704
L34814 11692
" />
<path d="M34814 9161
L34814 9173
" />
</g>
<g style="fill:#000000; fill-opacity:0.0; 
stroke:#000000; stroke-width:59.0551; stroke-opacity:1; 
stroke-linecap:round; stroke-linejoin:round;">
<path d="M17771 12712
L18165 12712
" />
<path d="M16354 12712
L15960 12712
" />
<path d="M16354 12545
L16354 12712
" />
<path d="M16639 12545
L16354 12545
" />
<path d="M18696 13952
L18696 13401
" />
<path d="M18696 14956
L18696 14897
" />
<path d="M18578 14956
L18696 14956
" />
<path d="M18578 15133
L18578 14956
" />
<path d="M15547 14956
L15547 15133
" />
<path d="M15429 14956
L15547 14956
" />
<path d="M15429 14897
L15429 14956
" />
<path d="M15429 13401
L15429 13952
" />
</g>
<g style="fill:#000000; fill-opacity:0.0; 
stroke:#000000; stroke-width:47.2441; stroke-opacity:1; 
stroke-linecap:round; stroke-linejoin:round;">
<path d="M30122 7646
L30122 7511
" />
<path d="M29720 7646
L29720 7511
" />
<path d="M18042 8074
L18177 8074
" />
<path d="M18042 7673
L18177 7673
" />
<path d="M21327 10173
L21192 10173
" />
<path d="M21327 10574
L21192 10574
" />
<path d="M21327 10980
L21192 10980
" />
<path d="M21327 11381
L21192 11381
" />
<path d="M22220 13672
L22220 13807
" />
<path d="M22622 13672
L22622 13807
" />
<path d="M21251 15515
L21386 15515
" />
<path d="M21251 15114
L21386 15114
" />
<path d="M16995 12078
L17130 12078
" />
<path d="M16995 11677
L17130 11677
" />
<path d="M19929 7948
L19794 7948
" />
<path d="M19929 8350
L19794 8350
" />
<path d="M41452 12731
L41452 12937
" />
<path d="M42011 12731
L42011 12937
" />
<path d="M37358 10212
L37358 10417
" />
<path d="M37917 10212
L37917 10417
" />
<path d="M30822 10212
L30822 10417
" />
<path d="M31381 10212
L31381 10417
" />
<path d="M22830 11500
L23035 11500
" />
<path d="M22830 10940
L23035 10940
" />
<path d="M24425 8755
L24425 8961
" />
<path d="M24984 8755
L24984 8961
" />
<path d="M21437 6732
L22106 6732
" />
<path d="M21437 9330
L21437 6732
" />
<path d="M22106 9330
L21437 9330
" />
<path d="M23956 9330
L23287 9330
" />
<path d="M23956 6732
L23956 9330
" />
<path d="M23287 6732
L23956 6732
" />
<path d="M42460 11574
L42460 11889
" />
<path d="M44291 11574
L42460 11574
" />
<path d="M44291 12834
L42460 12834
" />
<path d="M44291 14488
L44291 14173
" />
<path d="M42460 14488
L44291 14488
" />
<path d="M42460 13228
L44291 13228
" />
<path d="M22224 9822
L23759 9822
" />
<path d="M22224 10610
L23759 10610
" />
<path d="M22224 9822
L22224 10610
" />
<path d="M29271 7145
L28484 7145
" />
<path d="M28484 7145
L28484 8681
" />
<path d="M29271 7145
L29271 8681
" />
<path d="M20316 13425
L20316 12952
" />
<path d="M20316 12952
L21379 12952
" />
<path d="M21891 14842
L20316 14842
" />
<path d="M20316 14842
L20316 14370
" />
<path d="M18320 9877
L18320 9110
" />
<path d="M18320 9877
L18320 10645
" />
<path d="M16305 9877
L16305 9110
" />
<path d="M16305 9877
L16305 11236
" />
</g>
<g style="fill:#000000; fill-opacity:0.0; 
stroke:#000000; stroke-width:59.0551; stroke-opacity:1; 
stroke-linecap:round; stroke-linejoin:round;">
<text x="20157.5" y="8523.62"
textLength="889.764" font-size="524.934" lengthAdjust="spacingAndGlyphs"
text-anchor="middle" opacity="0">U1</text>
<path d="M19857 8111
L19857 8429
L19876 8467
L19895 8486
L19932 8504
L20007 8504
L20044 8486
L20063 8467
L20082 8429
L20082 8111
" />
<path d="M20476 8504
L20251 8504
" />
<path d="M20363 8504
L20363 8111
L20326 8167
L20288 8204
L20251 8223
" />
<g transform="rotate(-90 37440.9 7480.31)">
<text x="37440.9" y="7677.17"
textLength="864.173" font-size="524.934" lengthAdjust="spacingAndGlyphs"
text-anchor="middle" opacity="0">Q2</text>
</g>
<path d="M37656 7517
L37637 7555
L37600 7592
L37544 7649
L37525 7686
L37525 7724
" />
<path d="M37619 7705
L37600 7742
L37562 7780
L37487 7799
L37356 7799
L37281 7780
L37244 7742
L37225 7705
L37225 7630
L37244 7592
L37281 7555
L37356 7536
L37487 7536
L37562 7555
L37600 7592
L37619 7630
L37619 7705
" />
<path d="M37262 7386
L37244 7367
L37225 7330
L37225 7236
L37244 7199
L37262 7180
L37300 7161
L37337 7161
L37394 7180
L37619 7405
L37619 7161
" />
<g transform="rotate(-90 34803.1 7480.31)">
<text x="34803.1" y="7677.17"
textLength="864.173" font-size="524.934" lengthAdjust="spacingAndGlyphs"
text-anchor="middle" opacity="0">Q1</text>
</g>
<path d="M35018 7517
L35000 7555
L34962 7592
L34906 7649
L34887 7686
L34887 7724
" />
<path d="M34981 7705
L34962 7742
L34925 7780
L34850 7799
L34718 7799
L34643 7780
L34606 7742
L34587 7705
L34587 7630
L34606 7592
L34643 7555
L34718 7536
L34850 7536
L34925 7555
L34962 7592
L34981 7630
L34981 7705
" />
<path d="M34981 7161
L34981 7386
" />
<path d="M34981 7274
L34587 7274
L34643 7311
L34681 7349
L34700 7386
" />
<g transform="rotate(-90 46752 7677.17)">
<text x="46752" y="7874.02"
textLength="751.687" font-size="524.934" lengthAdjust="spacingAndGlyphs"
text-anchor="middle" opacity="0">J3</text>
</g>
<path d="M46536 7808
L46817 7808
L46873 7827
L46911 7864
L46930 7920
L46930 7958
" />
<path d="M46536 7658
L46536 7414
L46686 7545
L46686 7489
L46705 7452
L46723 7433
L46761 7414
L46855 7414
L46892 7433
L46911 7452
L46930 7489
L46930 7602
L46911 7639
L46892 7658
" />
<text x="30511.8" y="5413.39"
textLength="751.687" font-size="524.934" lengthAdjust="spacingAndGlyphs"
text-anchor="middle" opacity="0">J1</text>
<path d="M30380 5000
L30380 5282
L30361 5338
L30324 5375
L30268 5394
L30230 5394
" />
<path d="M30774 5394
L30549 5394
" />
<path d="M30661 5394
L30661 5000
L30624 5057
L30586 5094
L30549 5113
" />
<text x="14881.9" y="11358.3"
textLength="845.426" font-size="524.934" lengthAdjust="spacingAndGlyphs"
text-anchor="middle" opacity="0">R4</text>
<path d="M14816 11339
L14685 11152
" />
<path d="M14591 11339
L14591 10945
L14741 10945
L14778 10964
L14797 10983
L14816 11020
L14816 11077
L14797 11114
L14778 11133
L14741 11152
L14591 11152
" />
<path d="M15153 11077
L15153 11339
" />
<path d="M15059 10927
L14966 11208
L15209 11208
" />
<text x="33307.1" y="12933.9"
textLength="1145.39" font-size="524.934" lengthAdjust="spacingAndGlyphs"
text-anchor="middle" opacity="0">TP2</text>
<path d="M32810 12521
L33035 12521
" />
<path d="M32922 12915
L32922 12521
" />
<path d="M33166 12915
L33166 12521
L33316 12521
L33353 12540
L33372 12558
L33391 12596
L33391 12652
L33372 12690
L33353 12708
L33316 12727
L33166 12727
" />
<path d="M33541 12558
L33560 12540
L33597 12521
L33691 12521
L33728 12540
L33747 12558
L33766 12596
L33766 12633
L33747 12690
L33522 12915
L33766 12915
" />
<text x="35354.3" y="14272.4"
textLength="1145.39" font-size="524.934" lengthAdjust="spacingAndGlyphs"
text-anchor="middle" opacity="0">TP1</text>
<path d="M34857 13859
L35082 13859
" />
<path d="M34970 14253
L34970 13859
" />
<path d="M35213 14253
L35213 13859
L35363 13859
L35401 13878
L35419 13897
L35438 13934
L35438 13991
L35419 14028
L35401 14047
L35363 14066
L35213 14066
" />
<path d="M35813 14253
L35588 14253
" />
<path d="M35701 14253
L35701 13859
L35663 13916
L35626 13953
L35588 13972
" />
<text x="16535.4" y="7106.3"
textLength="845.426" font-size="524.934" lengthAdjust="spacingAndGlyphs"
text-anchor="middle" opacity="0">R8</text>
<path d="M16469 7087
L16338 6900
" />
<path d="M16244 7087
L16244 6693
L16394 6693
L16432 6712
L16451 6731
L16469 6768
L16469 6825
L16451 6862
L16432 6881
L16394 6900
L16244 6900
" />
<path d="M16694 6862
L16657 6843
L16638 6825
L16619 6787
L16619 6768
L16638 6731
L16657 6712
L16694 6693
L16769 6693
L16807 6712
L16826 6731
L16844 6768
L16844 6787
L16826 6825
L16807 6843
L16769 6862
L16694 6862
L16657 6881
L16638 6900
L16619 6937
L16619 7012
L16638 7050
L16657 7068
L16694 7087
L16769 7087
L16807 7068
L16826 7050
L16844 7012
L16844 6937
L16826 6900
L16807 6881
L16769 6862
" />
<text x="33769.7" y="15255.9"
textLength="845.426" font-size="524.934" lengthAdjust="spacingAndGlyphs"
text-anchor="middle" opacity="0">R7</text>
<path d="M33704 15237
L33572 15049
" />
<path d="M33479 15237
L33479 14843
L33629 14843
L33666 14862
L33685 14880
L33704 14918
L33704 14974
L33685 15012
L33666 15030
L33629 15049
L33479 15049
" />
<path d="M33835 14843
L34097 14843
L33929 15237
" />
<g transform="rotate(-90 33248 14803.1)">
<text x="33248" y="15000"
textLength="845.426" font-size="524.934" lengthAdjust="spacingAndGlyphs"
text-anchor="middle" opacity="0">R6</text>
</g>
<path d="M33426 14868
L33238 15000
" />
<path d="M33426 15093
L33032 15093
L33032 14943
L33051 14906
L33069 14887
L33107 14868
L33163 14868
L33201 14887
L33219 14906
L33238 14943
L33238 15093
" />
<path d="M33032 14531
L33032 14606
L33051 14643
L33069 14662
L33126 14700
L33201 14718
L33351 14718
L33388 14700
L33407 14681
L33426 14643
L33426 14568
L33407 14531
L33388 14512
L33351 14493
L33257 14493
L33219 14512
L33201 14531
L33182 14568
L33182 14643
L33201 14681
L33219 14700
L33257 14718
" />
<g transform="rotate(-90 39856.3 13634.8)">
<text x="39856.3" y="13831.7"
textLength="751.687" font-size="524.934" lengthAdjust="spacingAndGlyphs"
text-anchor="middle" opacity="0">J4</text>
</g>
<path d="M39640 13766
L39921 13766
L39978 13784
L40015 13822
L40034 13878
L40034 13916
" />
<path d="M39771 13409
L40034 13409
" />
<path d="M39621 13503
L39903 13597
L39903 13353
" />
<g transform="rotate(-90 15992.1 8346.46)">
<text x="15992.1" y="8543.31"
textLength="789.183" font-size="524.934" lengthAdjust="spacingAndGlyphs"
text-anchor="middle" opacity="0">F1</text>
</g>
<path d="M15964 8477
L15964 8608
" />
<path d="M16170 8608
L15776 8608
L15776 8421
" />
<path d="M16170 8065
L16170 8290
" />
<path d="M16170 8177
L15776 8177
L15832 8215
L15870 8252
L15889 8290
" />
<g transform="rotate(-90 37342.5 10315)">
<text x="37342.5" y="10511.8"
textLength="845.426" font-size="524.934" lengthAdjust="spacingAndGlyphs"
text-anchor="middle" opacity="0">R9</text>
</g>
<path d="M37520 10380
L37333 10511
" />
<path d="M37520 10605
L37126 10605
L37126 10455
L37145 10418
L37164 10399
L37201 10380
L37258 10380
L37295 10399
L37314 10418
L37333 10455
L37333 10605
" />
<path d="M37520 10193
L37520 10118
L37501 10080
L37483 10061
L37426 10024
L37351 10005
L37201 10005
L37164 10024
L37145 10043
L37126 10080
L37126 10155
L37145 10193
L37164 10211
L37201 10230
L37295 10230
L37333 10211
L37351 10193
L37370 10155
L37370 10080
L37351 10043
L37333 10024
L37295 10005
" />
<g transform="rotate(-90 29507.9 10315)">
<text x="29507.9" y="10511.8"
textLength="1220.38" font-size="524.934" lengthAdjust="spacingAndGlyphs"
text-anchor="middle" opacity="0">R10</text>
</g>
<path d="M29685 10568
L29498 10699
" />
<path d="M29685 10793
L29292 10793
L29292 10643
L29311 10605
L29329 10586
L29367 10568
L29423 10568
L29461 10586
L29479 10605
L29498 10643
L29498 10793
" />
<path d="M29685 10193
L29685 10418
" />
<path d="M29685 10305
L29292 10305
L29348 10343
L29386 10380
L29404 10418
" />
<path d="M29292 9949
L29292 9911
L29311 9874
L29329 9855
L29367 9836
L29442 9818
L29535 9818
L29610 9836
L29648 9855
L29667 9874
L29685 9911
L29685 9949
L29667 9986
L29648 10005
L29610 10024
L29535 10043
L29442 10043
L29367 10024
L29329 10005
L29311 9986
L29292 9949
" />
<text x="30393.7" y="11051.2"
textLength="1220.38" font-size="524.934" lengthAdjust="spacingAndGlyphs"
text-anchor="middle" opacity="0">C15</text>
<path d="M30140 10994
L30121 11013
L30065 11032
L30028 11032
L29971 11013
L29934 10976
L29915 10938
L29896 10863
L29896 10807
L29915 10732
L29934 10694
L29971 10657
L30028 10638
L30065 10638
L30121 10657
L30140 10676
" />
<path d="M30515 11032
L30290 11032
" />
<path d="M30403 11032
L30403 10638
L30365 10694
L30328 10732
L30290 10751
" />
<path d="M30871 10638
L30684 10638
L30665 10826
L30684 10807
L30721 10788
L30815 10788
L30853 10807
L30871 10826
L30890 10863
L30890 10957
L30871 10994
L30853 11013
L30815 11032
L30721 11032
L30684 11013
L30665 10994
" />
<g transform="rotate(-90 27775.6 8169.29)">
<text x="27775.6" y="8366.14"
textLength="864.173" font-size="524.934" lengthAdjust="spacingAndGlyphs"
text-anchor="middle" opacity="0">U5</text>
</g>
<path d="M27559 8469
L27878 8469
L27916 8450
L27934 8431
L27953 8394
L27953 8319
L27934 8281
L27916 8263
L27878 8244
L27559 8244
" />
<path d="M27559 7869
L27559 8056
L27747 8075
L27728 8056
L27709 8019
L27709 7925
L27728 7888
L27747 7869
L27784 7850
L27878 7850
L27916 7869
L27934 7888
L27953 7925
L27953 8019
L27934 8056
L27916 8075
" />
<g transform="rotate(-90 28456.7 8051.18)">
<text x="28456.7" y="8248.03"
textLength="1220.38" font-size="524.934" lengthAdjust="spacingAndGlyphs"
text-anchor="middle" opacity="0">C14</text>
</g>
<path d="M28597 8304
L28616 8323
L28634 8379
L28634 8416
L28616 8473
L28578 8510
L28541 8529
L28466 8547
L28409 8547
L28334 8529
L28297 8510
L28259 8473
L28241 8416
L28241 8379
L28259 8323
L28278 8304
" />
<path d="M28634 7929
L28634 8154
" />
<path d="M28634 8041
L28241 8041
L28297 8079
L28334 8116
L28353 8154
" />
<path d="M28372 7591
L28634 7591
" />
<path d="M28222 7685
L28503 7779
L28503 7535
" />
<text x="36929.1" y="11051.2"
textLength="1220.38" font-size="524.934" lengthAdjust="spacingAndGlyphs"
text-anchor="middle" opacity="0">C16</text>
<path d="M36676 10994
L36657 11013
L36601 11032
L36563 11032
L36507 11013
L36469 10976
L36451 10938
L36432 10863
L36432 10807
L36451 10732
L36469 10694
L36507 10657
L36563 10638
L36601 10638
L36657 10657
L36676 10676
" />
<path d="M37050 11032
L36826 11032
" />
<path d="M36938 11032
L36938 10638
L36901 10694
L36863 10732
L36826 10751
" />
<path d="M37388 10638
L37313 10638
L37275 10657
L37257 10676
L37219 10732
L37200 10807
L37200 10957
L37219 10994
L37238 11013
L37275 11032
L37350 11032
L37388 11013
L37407 10994
L37425 10957
L37425 10863
L37407 10826
L37388 10807
L37350 10788
L37275 10788
L37238 10807
L37219 10826
L37200 10863
" />
<text x="28543.3" y="11070.9"
textLength="845.426" font-size="524.934" lengthAdjust="spacingAndGlyphs"
text-anchor="middle" opacity="0">C9</text>
<path d="M28477 11014
L28458 11033
L28402 11052
L28365 11052
L28308 11033
L28271 10995
L28252 10958
L28233 10883
L28233 10827
L28252 10752
L28271 10714
L28308 10677
L28365 10658
L28402 10658
L28458 10677
L28477 10695
" />
<path d="M28665 11052
L28740 11052
L28777 11033
L28796 11014
L28833 10958
L28852 10883
L28852 10733
L28833 10695
L28815 10677
L28777 10658
L28702 10658
L28665 10677
L28646 10695
L28627 10733
L28627 10827
L28646 10864
L28665 10883
L28702 10902
L28777 10902
L28815 10883
L28833 10864
L28852 10827
" />
<text x="28464.6" y="11752"
textLength="864.173" font-size="524.934" lengthAdjust="spacingAndGlyphs"
text-anchor="middle" opacity="0">U4</text>
<path d="M28164 11339
L28164 11658
L28183 11695
L28202 11714
L28239 11733
L28314 11733
L28352 11714
L28370 11695
L28389 11658
L28389 11339
" />
<path d="M28745 11470
L28745 11733
" />
<path d="M28652 11320
L28558 11601
L28802 11601
" />
<g transform="rotate(-90 31074.8 13366.1)">
<text x="31074.8" y="13563"
textLength="1220.38" font-size="524.934" lengthAdjust="spacingAndGlyphs"
text-anchor="middle" opacity="0">C10</text>
</g>
<path d="M31215 13619
L31234 13637
L31252 13694
L31252 13731
L31234 13787
L31196 13825
L31159 13844
L31084 13862
L31027 13862
L30952 13844
L30915 13825
L30877 13787
L30859 13731
L30859 13694
L30877 13637
L30896 13619
" />
<path d="M31252 13244
L31252 13469
" />
<path d="M31252 13356
L30859 13356
L30915 13394
L30952 13431
L30971 13469
" />
<path d="M30859 13000
L30859 12963
L30877 12925
L30896 12906
L30934 12888
L31009 12869
L31102 12869
L31177 12888
L31215 12906
L31234 12925
L31252 12963
L31252 13000
L31234 13038
L31215 13056
L31177 13075
L31102 13094
L31009 13094
L30934 13075
L30896 13056
L30877 13038
L30859 13000
" />
<g transform="rotate(-90 31822.8 13385.8)">
<text x="31822.8" y="13582.7"
textLength="845.426" font-size="524.934" lengthAdjust="spacingAndGlyphs"
text-anchor="middle" opacity="0">C7</text>
</g>
<path d="M31963 13451
L31982 13470
L32000 13526
L32000 13563
L31982 13620
L31944 13657
L31907 13676
L31832 13695
L31775 13695
L31700 13676
L31663 13657
L31625 13620
L31607 13563
L31607 13526
L31625 13470
L31644 13451
" />
<path d="M31607 13320
L31607 13057
L32000 13226
" />
<g transform="rotate(-90 22842.5 12618.1)">
<text x="22842.5" y="12815"
textLength="1220.38" font-size="524.934" lengthAdjust="spacingAndGlyphs"
text-anchor="middle" opacity="0">C12</text>
</g>
<path d="M22983 12871
L23001 12889
L23020 12946
L23020 12983
L23001 13039
L22964 13077
L22926 13096
L22851 13114
L22795 13114
L22720 13096
L22683 13077
L22645 13039
L22626 12983
L22626 12946
L22645 12889
L22664 12871
" />
<path d="M23020 12496
L23020 12721
" />
<path d="M23020 12608
L22626 12608
L22683 12646
L22720 12683
L22739 12721
" />
<path d="M22664 12346
L22645 12327
L22626 12290
L22626 12196
L22645 12158
L22664 12140
L22701 12121
L22739 12121
L22795 12140
L23020 12365
L23020 12121
" />
<text x="26968.5" y="14692.9"
textLength="1220.38" font-size="524.934" lengthAdjust="spacingAndGlyphs"
text-anchor="middle" opacity="0">C13</text>
<path d="M26715 14636
L26696 14655
L26640 14674
L26602 14674
L26546 14655
L26509 14617
L26490 14580
L26471 14505
L26471 14449
L26490 14374
L26509 14336
L26546 14299
L26602 14280
L26640 14280
L26696 14299
L26715 14317
" />
<path d="M27090 14674
L26865 14674
" />
<path d="M26977 14674
L26977 14280
L26940 14336
L26902 14374
L26865 14392
" />
<path d="M27221 14280
L27465 14280
L27334 14430
L27390 14430
L27427 14449
L27446 14467
L27465 14505
L27465 14599
L27446 14636
L27427 14655
L27390 14674
L27277 14674
L27240 14655
L27221 14636
" />
<g transform="rotate(-90 26417.3 13523.6)">
<text x="26417.3" y="13720.5"
textLength="789.183" font-size="524.934" lengthAdjust="spacingAndGlyphs"
text-anchor="middle" opacity="0">Y1</text>
</g>
<path d="M26407 13711
L26595 13711
" />
<path d="M26201 13842
L26407 13711
L26201 13579
" />
<path d="M26595 13242
L26595 13467
" />
<path d="M26595 13354
L26201 13354
L26257 13392
L26295 13429
L26314 13467
" />
<g transform="rotate(-90 20531.5 11023.6)">
<text x="20531.5" y="11220.5"
textLength="845.426" font-size="524.934" lengthAdjust="spacingAndGlyphs"
text-anchor="middle" opacity="0">R3</text>
</g>
<path d="M20709 11089
L20522 11220
" />
<path d="M20709 11314
L20315 11314
L20315 11164
L20334 11126
L20353 11107
L20390 11089
L20447 11089
L20484 11107
L20503 11126
L20522 11164
L20522 11314
" />
<path d="M20315 10958
L20315 10714
L20465 10845
L20465 10789
L20484 10751
L20503 10733
L20540 10714
L20634 10714
L20672 10733
L20690 10751
L20709 10789
L20709 10901
L20690 10939
L20672 10958
" />
<text x="21200.8" y="11604.3"
textLength="845.426" font-size="524.934" lengthAdjust="spacingAndGlyphs"
text-anchor="middle" opacity="0">R2</text>
<path d="M21135 11585
L21003 11398
" />
<path d="M20910 11585
L20910 11191
L21060 11191
L21097 11210
L21116 11229
L21135 11266
L21135 11323
L21116 11360
L21097 11379
L21060 11398
L20910 11398
" />
<path d="M21285 11229
L21303 11210
L21341 11191
L21435 11191
L21472 11210
L21491 11229
L21510 11266
L21510 11304
L21491 11360
L21266 11585
L21510 11585
" />
<text x="40078.7" y="9035.43"
textLength="1276.62" font-size="524.934" lengthAdjust="spacingAndGlyphs"
text-anchor="middle" opacity="0">SW2</text>
<path d="M39553 8997
L39610 9016
L39703 9016
L39741 8997
L39760 8979
L39778 8941
L39778 8904
L39760 8866
L39741 8847
L39703 8829
L39628 8810
L39591 8791
L39572 8772
L39553 8735
L39553 8697
L39572 8660
L39591 8641
L39628 8622
L39722 8622
L39778 8641
" />
<path d="M39910 8622
L40003 9016
L40078 8735
L40153 9016
L40247 8622
" />
<path d="M40378 8660
L40397 8641
L40434 8622
L40528 8622
L40566 8641
L40584 8660
L40603 8697
L40603 8735
L40584 8791
L40359 9016
L40603 9016
" />
<text x="33543.3" y="9035.43"
textLength="1276.62" font-size="524.934" lengthAdjust="spacingAndGlyphs"
text-anchor="middle" opacity="0">SW1</text>
<path d="M33018 8997
L33074 9016
L33168 9016
L33205 8997
L33224 8979
L33243 8941
L33243 8904
L33224 8866
L33205 8847
L33168 8829
L33093 8810
L33055 8791
L33037 8772
L33018 8735
L33018 8697
L33037 8660
L33055 8641
L33093 8622
L33187 8622
L33243 8641
" />
<path d="M33374 8622
L33468 9016
L33543 8735
L33618 9016
L33712 8622
" />
<path d="M34068 9016
L33843 9016
" />
<path d="M33955 9016
L33955 8622
L33918 8679
L33880 8716
L33843 8735
" />
<g transform="rotate(90 14763.8 14015.7)">
<text x="14763.8" y="14212.6"
textLength="751.687" font-size="524.934" lengthAdjust="spacingAndGlyphs"
text-anchor="middle" opacity="0">J2</text>
</g>
<path d="M14979 13884
L14698 13884
L14641 13865
L14604 13828
L14585 13772
L14585 13734
" />
<path d="M14941 14053
L14960 14071
L14979 14109
L14979 14203
L14960 14240
L14941 14259
L14904 14278
L14866 14278
L14810 14259
L14585 14034
L14585 14278
" />
<g transform="rotate(-90 29358.3 7578.74)">
<text x="29358.3" y="7775.59"
textLength="1220.38" font-size="524.934" lengthAdjust="spacingAndGlyphs"
text-anchor="middle" opacity="0">C17</text>
</g>
<path d="M29498 7831
L29517 7850
L29536 7906
L29536 7944
L29517 8000
L29480 8038
L29442 8056
L29367 8075
L29311 8075
L29236 8056
L29198 8038
L29161 8000
L29142 7944
L29142 7906
L29161 7850
L29180 7831
" />
<path d="M29536 7456
L29536 7681
" />
<path d="M29536 7569
L29142 7569
L29198 7606
L29236 7644
L29255 7681
" />
<path d="M29142 7325
L29142 7063
L29536 7231
" />
<text x="16889.8" y="8031.5"
textLength="1220.38" font-size="524.934" lengthAdjust="spacingAndGlyphs"
text-anchor="middle" opacity="0">C11</text>
<path d="M16636 7975
L16617 7994
L16561 8012
L16524 8012
L16467 7994
L16430 7956
L16411 7919
L16392 7844
L16392 7787
L16411 7712
L16430 7675
L16467 7637
L16524 7619
L16561 7619
L16617 7637
L16636 7656
" />
<path d="M17011 8012
L16786 8012
" />
<path d="M16899 8012
L16899 7619
L16861 7675
L16824 7712
L16786 7731
" />
<path d="M17386 8012
L17161 8012
" />
<path d="M17274 8012
L17274 7619
L17236 7675
L17199 7712
L17161 7731
" />
<text x="21259.8" y="11133.9"
textLength="845.426" font-size="524.934" lengthAdjust="spacingAndGlyphs"
text-anchor="middle" opacity="0">C8</text>
<path d="M21194 11077
L21175 11096
L21119 11115
L21081 11115
L21025 11096
L20988 11058
L20969 11021
L20950 10946
L20950 10890
L20969 10815
L20988 10777
L21025 10740
L21081 10721
L21119 10721
L21175 10740
L21194 10758
" />
<path d="M21419 10890
L21381 10871
L21362 10852
L21344 10815
L21344 10796
L21362 10758
L21381 10740
L21419 10721
L21494 10721
L21531 10740
L21550 10758
L21569 10796
L21569 10815
L21550 10852
L21531 10871
L21494 10890
L21419 10890
L21381 10908
L21362 10927
L21344 10965
L21344 11040
L21362 11077
L21381 11096
L21419 11115
L21494 11115
L21531 11096
L21550 11077
L21569 11040
L21569 10965
L21550 10927
L21531 10908
L21494 10890
" />
<text x="21259.8" y="11940.9"
textLength="845.426" font-size="524.934" lengthAdjust="spacingAndGlyphs"
text-anchor="middle" opacity="0">C6</text>
<path d="M21194 11884
L21175 11903
L21119 11922
L21081 11922
L21025 11903
L20988 11865
L20969 11828
L20950 11753
L20950 11697
L20969 11622
L20988 11584
L21025 11547
L21081 11528
L21119 11528
L21175 11547
L21194 11565
" />
<path d="M21531 11528
L21456 11528
L21419 11547
L21400 11565
L21362 11622
L21344 11697
L21344 11847
L21362 11884
L21381 11903
L21419 11922
L21494 11922
L21531 11903
L21550 11884
L21569 11847
L21569 11753
L21550 11715
L21531 11697
L21494 11678
L21419 11678
L21381 11697
L21362 11715
L21344 11753
" />
<g transform="rotate(-90 22984.3 13740.2)">
<text x="22984.3" y="13937"
textLength="845.426" font-size="524.934" lengthAdjust="spacingAndGlyphs"
text-anchor="middle" opacity="0">C5</text>
</g>
<path d="M23124 13805
L23143 13824
L23162 13880
L23162 13918
L23143 13974
L23106 14011
L23068 14030
L22993 14049
L22937 14049
L22862 14030
L22824 14011
L22787 13974
L22768 13918
L22768 13880
L22787 13824
L22806 13805
" />
<path d="M22768 13449
L22768 13637
L22956 13655
L22937 13637
L22918 13599
L22918 13505
L22937 13468
L22956 13449
L22993 13430
L23087 13430
L23124 13449
L23143 13468
L23162 13505
L23162 13599
L23143 13637
L23124 13655
" />
<text x="22421.3" y="15511.8"
textLength="845.426" font-size="524.934" lengthAdjust="spacingAndGlyphs"
text-anchor="middle" opacity="0">C4</text>
<path d="M22355 15455
L22336 15474
L22280 15493
L22243 15493
L22186 15474
L22149 15436
L22130 15399
L22111 15324
L22111 15268
L22130 15193
L22149 15155
L22186 15118
L22243 15099
L22280 15099
L22336 15118
L22355 15136
" />
<path d="M22693 15230
L22693 15493
" />
<path d="M22599 15080
L22505 15361
L22749 15361
" />
<text x="18189" y="12047.2"
textLength="845.426" font-size="524.934" lengthAdjust="spacingAndGlyphs"
text-anchor="middle" opacity="0">C2</text>
<path d="M18123 11991
L18104 12009
L18048 12028
L18010 12028
L17954 12009
L17917 11972
L17898 11934
L17879 11859
L17879 11803
L17898 11728
L17917 11691
L17954 11653
L18010 11634
L18048 11634
L18104 11653
L18123 11672
" />
<path d="M18273 11672
L18292 11653
L18329 11634
L18423 11634
L18460 11653
L18479 11672
L18498 11709
L18498 11747
L18479 11803
L18254 12028
L18498 12028
" />
<text x="19862.2" y="8909.45"
textLength="845.426" font-size="524.934" lengthAdjust="spacingAndGlyphs"
text-anchor="middle" opacity="0">C1</text>
<path d="M19796 8853
L19777 8871
L19721 8890
L19684 8890
L19627 8871
L19590 8834
L19571 8796
L19552 8721
L19552 8665
L19571 8590
L19590 8553
L19627 8515
L19684 8497
L19721 8497
L19777 8515
L19796 8534
" />
<path d="M20171 8890
L19946 8890
" />
<path d="M20059 8890
L20059 8497
L20021 8553
L19984 8590
L19946 8609
" />
<g transform="rotate(-90 42381.9 12834.6)">
<text x="42381.9" y="13031.5"
textLength="1220.38" font-size="524.934" lengthAdjust="spacingAndGlyphs"
text-anchor="middle" opacity="0">R13</text>
</g>
<path d="M42559 13087
L42372 13218
" />
<path d="M42559 13312
L42166 13312
L42166 13162
L42185 13125
L42203 13106
L42241 13087
L42297 13087
L42335 13106
L42353 13125
L42372 13162
L42372 13312
" />
<path d="M42559 12712
L42559 12937
" />
<path d="M42559 12825
L42166 12825
L42222 12862
L42260 12900
L42278 12937
" />
<path d="M42166 12581
L42166 12337
L42316 12469
L42316 12412
L42335 12375
L42353 12356
L42391 12337
L42485 12337
L42522 12356
L42541 12375
L42559 12412
L42559 12525
L42541 12562
L42522 12581
" />
<g transform="rotate(-90 38287.4 10315)">
<text x="38287.4" y="10511.8"
textLength="1220.38" font-size="524.934" lengthAdjust="spacingAndGlyphs"
text-anchor="middle" opacity="0">R12</text>
</g>
<path d="M38465 10568
L38278 10699
" />
<path d="M38465 10793
L38071 10793
L38071 10643
L38090 10605
L38109 10586
L38146 10568
L38203 10568
L38240 10586
L38259 10605
L38278 10643
L38278 10793
" />
<path d="M38465 10193
L38465 10418
" />
<path d="M38465 10305
L38071 10305
L38128 10343
L38165 10380
L38184 10418
" />
<path d="M38109 10043
L38090 10024
L38071 9986
L38071 9893
L38090 9855
L38109 9836
L38146 9818
L38184 9818
L38240 9836
L38465 10061
L38465 9818
" />
<g transform="rotate(-90 31752 10315)">
<text x="31752" y="10511.8"
textLength="1220.38" font-size="524.934" lengthAdjust="spacingAndGlyphs"
text-anchor="middle" opacity="0">R11</text>
</g>
<path d="M31930 10568
L31742 10699
" />
<path d="M31930 10793
L31536 10793
L31536 10643
L31555 10605
L31573 10586
L31611 10568
L31667 10568
L31705 10586
L31723 10605
L31742 10643
L31742 10793
" />
<path d="M31930 10193
L31930 10418
" />
<path d="M31930 10305
L31536 10305
L31592 10343
L31630 10380
L31648 10418
" />
<path d="M31930 9818
L31930 10043
" />
<path d="M31930 9930
L31536 9930
L31592 9968
L31630 10005
L31648 10043
" />
<text x="22933.1" y="10767.7"
textLength="845.426" font-size="524.934" lengthAdjust="spacingAndGlyphs"
text-anchor="middle" opacity="0">R5</text>
<path d="M22867 10748
L22736 10561
" />
<path d="M22642 10748
L22642 10355
L22792 10355
L22829 10374
L22848 10392
L22867 10430
L22867 10486
L22848 10523
L22829 10542
L22792 10561
L22642 10561
" />
<path d="M23223 10355
L23036 10355
L23017 10542
L23036 10523
L23073 10505
L23167 10505
L23204 10523
L23223 10542
L23242 10580
L23242 10673
L23223 10711
L23204 10730
L23167 10748
L23073 10748
L23036 10730
L23017 10711
" />
<g transform="rotate(-90 25354.3 8858.27)">
<text x="25354.3" y="9055.12"
textLength="845.426" font-size="524.934" lengthAdjust="spacingAndGlyphs"
text-anchor="middle" opacity="0">R1</text>
</g>
<path d="M25532 8923
L25344 9055
" />
<path d="M25532 9148
L25138 9148
L25138 8998
L25157 8961
L25176 8942
L25213 8923
L25269 8923
L25307 8942
L25326 8961
L25344 8998
L25344 9148
" />
<path d="M25532 8548
L25532 8773
" />
<path d="M25532 8661
L25138 8661
L25194 8698
L25232 8736
L25251 8773
" />
<g transform="rotate(-90 20944.9 8031.5)">
<text x="20944.9" y="8228.35"
textLength="770.435" font-size="524.934" lengthAdjust="spacingAndGlyphs"
text-anchor="middle" opacity="0">L1</text>
</g>
<path d="M21122 8097
L21122 8284
L20729 8284
" />
<path d="M21122 7759
L21122 7984
" />
<path d="M21122 7872
L20729 7872
L20785 7909
L20823 7947
L20841 7984
" />
<text x="43405.5" y="11417.3"
textLength="845.426" font-size="524.934" lengthAdjust="spacingAndGlyphs"
text-anchor="middle" opacity="0">D4</text>
<path d="M43114 11398
L43114 11004
L43208 11004
L43264 11023
L43302 11061
L43321 11098
L43339 11173
L43339 11229
L43321 11304
L43302 11342
L43264 11379
L43208 11398
L43114 11398
" />
<path d="M43677 11136
L43677 11398
" />
<path d="M43583 10986
L43489 11267
L43733 11267
" />
<text x="43346.5" y="15039.4"
textLength="845.426" font-size="524.934" lengthAdjust="spacingAndGlyphs"
text-anchor="middle" opacity="0">D2</text>
<path d="M43055 15020
L43055 14626
L43149 14626
L43205 14645
L43243 14683
L43262 14720
L43280 14795
L43280 14851
L43262 14926
L43243 14964
L43205 15001
L43149 15020
L43055 15020
" />
<path d="M43430 14664
L43449 14645
L43487 14626
L43580 14626
L43618 14645
L43637 14664
L43655 14701
L43655 14739
L43637 14795
L43412 15020
L43655 15020
" />
<text x="23110.2" y="9625.98"
textLength="845.426" font-size="524.934" lengthAdjust="spacingAndGlyphs"
text-anchor="middle" opacity="0">D1</text>
<path d="M22819 9607
L22819 9213
L22913 9213
L22969 9232
L23007 9269
L23025 9307
L23044 9382
L23044 9438
L23025 9513
L23007 9550
L22969 9588
L22913 9607
L22819 9607
" />
<path d="M23419 9607
L23194 9607
" />
<path d="M23307 9607
L23307 9213
L23269 9269
L23232 9307
L23194 9326
" />
<g transform="rotate(-90 29665.4 8031.5)">
<text x="29665.4" y="8228.35"
textLength="845.426" font-size="524.934" lengthAdjust="spacingAndGlyphs"
text-anchor="middle" opacity="0">D3</text>
</g>
<path d="M29843 8322
L29449 8322
L29449 8228
L29468 8172
L29505 8134
L29543 8115
L29618 8097
L29674 8097
L29749 8115
L29787 8134
L29824 8172
L29843 8228
L29843 8322
" />
<path d="M29449 7965
L29449 7722
L29599 7853
L29599 7797
L29618 7759
L29637 7740
L29674 7722
L29768 7722
L29805 7740
L29824 7759
L29843 7797
L29843 7909
L29824 7947
L29805 7965
" />
<text x="20059.1" y="15393.7"
textLength="864.173" font-size="524.934" lengthAdjust="spacingAndGlyphs"
text-anchor="middle" opacity="0">U2</text>
<path d="M19759 14981
L19759 15299
L19777 15337
L19796 15356
L19834 15374
L19909 15374
L19946 15356
L19965 15337
L19984 15299
L19984 14981
" />
<path d="M20152 15018
L20171 15000
L20209 14981
L20302 14981
L20340 15000
L20359 15018
L20377 15056
L20377 15093
L20359 15149
L20134 15374
L20377 15374
" />
<g transform="rotate(-90 15974.4 9877.95)">
<text x="15974.4" y="10074.8"
textLength="864.173" font-size="524.934" lengthAdjust="spacingAndGlyphs"
text-anchor="middle" opacity="0">U3</text>
</g>
<path d="M15758 10177
L16077 10177
L16115 10159
L16133 10140
L16152 10102
L16152 10027
L16133 9990
L16115 9971
L16077 9952
L15758 9952
" />
<path d="M15758 9802
L15758 9559
L15908 9690
L15908 9634
L15927 9596
L15946 9577
L15983 9559
L16077 9559
L16115 9577
L16133 9596
L16152 9634
L16152 9746
L16133 9784
L16115 9802
" />
<g >
</g>
</g> 
</svg>
