<?xml version="1.0" standalone="no"?>
 <!DOCTYPE svg PUBLIC "-//W3C//DTD SVG 1.1//EN" 
 "http://www.w3.org/Graphics/SVG/1.1/DTD/svg11.dtd"> 
<svg xmlns="http://www.w3.org/2000/svg" version="1.1" 
    width="29.7002cm" height="21.0007cm" viewBox="0 0 116930 82680 ">
<title>SVG Picture created as PwmBrick-F_Mask.svg date 2020/11/29 12:29:36 </title>
  <desc>Picture generated by PCBNEW </desc>
<g style="fill:#000000; fill-opacity:1;stroke:#000000; stroke-opacity:1;
stroke-linecap:round; stroke-linejoin:round; "
 transform="translate(0 0) scale(1 1)">
</g>
<g style="fill:#000000; fill-opacity:0.0; 
stroke:#000000; stroke-width:-0.000393701; stroke-opacity:1; 
stroke-linecap:round; stroke-linejoin:round;">
</g>
<g style="fill:#000000; fill-opacity:1.0; 
stroke:#000000; stroke-width:0; stroke-opacity:1; 
stroke-linecap:round; stroke-linejoin:round;">
<path style="fill:#000000; fill-opacity:1.0; 
stroke:#000000; stroke-width:0; stroke-opacity:1; 
stroke-linecap:round; stroke-linejoin:round;fill-rule:evenodd;"
d="M 21826.6,15109.6
21841.3,15114.1
21854.9,15121.4
21866.9,15131.2
21876.7,15143.1
21883.9,15156.7
21888.4,15171.5
21890.2,15189.2
21890.2,15440.7
21888.4,15458.5
21883.9,15473.2
21876.7,15486.8
21866.9,15498.8
21854.9,15508.5
21841.3,15515.8
21826.6,15520.3
21808.8,15522
21518,15522
21500.2,15520.3
21485.4,15515.8
21471.8,15508.5
21459.9,15498.8
21450.1,15486.8
21442.8,15473.2
21438.4,15458.5
21436.6,15440.7
21436.6,15189.2
21438.4,15171.5
21442.8,15156.7
21450.1,15143.1
21459.9,15131.2
21471.8,15121.4
21485.4,15114.1
21500.2,15109.6
21518,15107.9
21808.8,15107.9
Z" /> 
<path style="fill:#000000; fill-opacity:1.0; 
stroke:#000000; stroke-width:0; stroke-opacity:1; 
stroke-linecap:round; stroke-linejoin:round;fill-rule:evenodd;"
d="M 21137.6,15109.6
21152.4,15114.1
21166,15121.4
21177.9,15131.2
21187.7,15143.1
21195,15156.7
21199.4,15171.5
21201.2,15189.2
21201.2,15440.7
21199.4,15458.5
21195,15473.2
21187.7,15486.8
21177.9,15498.8
21166,15508.5
21152.4,15515.8
21137.6,15520.3
21119.8,15522
20829,15522
20811.2,15520.3
20796.5,15515.8
20782.9,15508.5
20770.9,15498.8
20761.1,15486.8
20753.9,15473.2
20749.4,15458.5
20747.6,15440.7
20747.6,15189.2
20749.4,15171.5
20753.9,15156.7
20761.1,15143.1
20770.9,15131.2
20782.9,15121.4
20796.5,15114.1
20811.2,15109.6
20829,15107.9
21119.8,15107.9
Z" /> 
<path style="fill:#000000; fill-opacity:1.0; 
stroke:#000000; stroke-width:0; stroke-opacity:1; 
stroke-linecap:round; stroke-linejoin:round;fill-rule:evenodd;"
d="M 32830.2,14962
32845,14966.5
32858.7,14973.8
32870.7,14983.6
32880.5,14995.6
32887.8,15009.3
32892.3,15024.1
32894.1,15042
32894.1,15371.4
32892.3,15389.2
32887.8,15404.1
32880.5,15417.8
32870.7,15429.7
32858.7,15439.6
32845,15446.9
32830.2,15451.4
32812.3,15453.1
32384.5,15453.1
32366.7,15451.4
32351.8,15446.9
32338.1,15439.6
32326.2,15429.7
32316.3,15417.8
32309,15404.1
32304.5,15389.2
32302.8,15371.4
32302.8,15042
32304.5,15024.1
32309,15009.3
32316.3,14995.6
32326.2,14983.6
32338.1,14973.8
32351.8,14966.5
32366.7,14962
32384.5,14960.2
32812.3,14960.2
Z" /> 
<path style="fill:#000000; fill-opacity:1.0; 
stroke:#000000; stroke-width:0; stroke-opacity:1; 
stroke-linecap:round; stroke-linejoin:round;fill-rule:evenodd;"
d="M 26787.2,14853.7
26802,14858.2
26815.6,14865.5
26827.5,14875.3
26837.3,14887.2
26844.6,14900.8
26849,14915.6
26850.8,14933.3
26850.8,15184.8
26849,15202.6
26844.6,15217.3
26837.3,15230.9
26827.5,15242.9
26815.6,15252.6
26802,15259.9
26787.2,15264.4
26769.4,15266.1
26478.6,15266.1
26460.8,15264.4
26446.1,15259.9
26432.5,15252.6
26420.5,15242.9
26410.7,15230.9
26403.5,15217.3
26399,15202.6
26397.2,15184.8
26397.2,14933.3
26399,14915.6
26403.5,14900.8
26410.7,14887.2
26420.5,14875.3
26432.5,14865.5
26446.1,14858.2
26460.8,14853.7
26478.6,14852
26769.4,14852
Z" /> 
<path style="fill:#000000; fill-opacity:1.0; 
stroke:#000000; stroke-width:0; stroke-opacity:1; 
stroke-linecap:round; stroke-linejoin:round;fill-rule:evenodd;"
d="M 27476.2,14853.7
27490.9,14858.2
27504.5,14865.5
27516.5,14875.3
27526.3,14887.2
27533.5,14900.8
27538,14915.6
27539.8,14933.3
27539.8,15184.8
27538,15202.6
27533.5,15217.3
27526.3,15230.9
27516.5,15242.9
27504.5,15252.6
27490.9,15259.9
27476.2,15264.4
27458.4,15266.1
27167.6,15266.1
27149.8,15264.4
27135,15259.9
27121.4,15252.6
27109.5,15242.9
27099.7,15230.9
27092.4,15217.3
27088,15202.6
27086.2,15184.8
27086.2,14933.3
27088,14915.6
27092.4,14900.8
27099.7,14887.2
27109.5,14875.3
27121.4,14865.5
27135,14858.2
27149.8,14853.7
27167.6,14852
27458.4,14852
Z" /> 
<path style="fill:#000000; fill-opacity:1.0; 
stroke:#000000; stroke-width:0; stroke-opacity:1; 
stroke-linecap:round; stroke-linejoin:round;fill-rule:evenodd;"
d="M 25748.4,15216.9
25157.1,15216.9
25157.1,14310.6
25748.4,14310.6
Z" /> 
<path style="fill:#000000; fill-opacity:1.0; 
stroke:#000000; stroke-width:0; stroke-opacity:1; 
stroke-linecap:round; stroke-linejoin:round;fill-rule:evenodd;"
d="M 24764.2,15216.9
24172.8,15216.9
24172.8,14310.6
24764.2,14310.6
Z" /> 
<path style="fill:#000000; fill-opacity:1.0; 
stroke:#000000; stroke-width:0; stroke-opacity:1; 
stroke-linecap:round; stroke-linejoin:round;fill-rule:evenodd;"
d="M 35571.3,14862.6
35137.4,14862.6
35137.4,14428.7
35571.3,14428.7
Z" /> 
<path style="fill:#000000; fill-opacity:1.0; 
stroke:#000000; stroke-width:0; stroke-opacity:1; 
stroke-linecap:round; stroke-linejoin:round;fill-rule:evenodd;"
d="M 15585.7,14054.4
15632.2,14068.4
15675,14091.3
15712.5,14122.1
15743.3,14159.7
15766.2,14202.5
15780.3,14248.9
15783.9,14285.1
15783.9,14565.3
15780.3,14601.5
15766.2,14647.9
15743.3,14690.7
15712.5,14728.3
15675,14759.1
15632.2,14781.9
15585.7,14796
15537.4,14800.8
15489.1,14796
15442.6,14781.9
15399.8,14759.1
15362.3,14728.3
15331.5,14690.7
15308.6,14647.9
15294.5,14601.5
15290.9,14565.3
15290.9,14285.1
15294.5,14248.9
15308.6,14202.5
15331.5,14159.7
15362.3,14122.1
15399.8,14091.3
15442.6,14068.4
15489.1,14054.4
15537.4,14049.6
Z" /> 
<path style="fill:#000000; fill-opacity:1.0; 
stroke:#000000; stroke-width:0; stroke-opacity:1; 
stroke-linecap:round; stroke-linejoin:round;fill-rule:evenodd;"
d="M 18636.9,14054.4
18683.4,14068.4
18726.2,14091.3
18763.7,14122.1
18794.5,14159.7
18817.4,14202.5
18831.5,14248.9
18835,14285.1
18835,14565.3
18831.5,14601.5
18817.4,14647.9
18794.5,14690.7
18763.7,14728.3
18726.2,14759.1
18683.4,14781.9
18636.9,14796
18588.6,14800.8
18540.3,14796
18493.8,14781.9
18451,14759.1
18413.5,14728.3
18382.7,14690.7
18359.8,14647.9
18345.7,14601.5
18342.1,14565.3
18342.1,14285.1
18345.7,14248.9
18359.8,14202.5
18382.7,14159.7
18413.5,14122.1
18451,14091.3
18493.8,14068.4
18540.3,14054.4
18588.6,14049.6
Z" /> 
<path style="fill:#000000; fill-opacity:1.0; 
stroke:#000000; stroke-width:0; stroke-opacity:1; 
stroke-linecap:round; stroke-linejoin:round;fill-rule:evenodd;"
d="M 34355.8,14115.5
34370.6,14120
34384.3,14127.3
34396.3,14137.2
34406.1,14149.2
34413.4,14162.8
34417.9,14177.7
34419.7,14195.5
34419.7,14623.4
34417.9,14641.2
34413.4,14656
34406.1,14669.7
34396.3,14681.7
34384.3,14691.5
34370.6,14698.9
34355.8,14703.4
34337.9,14705.1
34008.5,14705.1
33990.7,14703.4
33975.8,14698.9
33962.2,14691.5
33950.2,14681.7
33940.3,14669.7
33933,14656
33928.5,14641.2
33926.8,14623.4
33926.8,14195.5
33928.5,14177.7
33933,14162.8
33940.3,14149.2
33950.2,14137.2
33962.2,14127.3
33975.8,14120
33990.7,14115.5
34008.5,14113.8
34337.9,14113.8
Z" /> 
<path style="fill:#000000; fill-opacity:1.0; 
stroke:#000000; stroke-width:0; stroke-opacity:1; 
stroke-linecap:round; stroke-linejoin:round;fill-rule:evenodd;"
d="M 33548.7,14115.5
33563.5,14120
33577.2,14127.3
33589.2,14137.2
33599,14149.2
33606.3,14162.8
33610.8,14177.7
33612.6,14195.5
33612.6,14623.4
33610.8,14641.2
33606.3,14656
33599,14669.7
33589.2,14681.7
33577.2,14691.5
33563.5,14698.9
33548.7,14703.4
33530.8,14705.1
33201.4,14705.1
33183.6,14703.4
33168.8,14698.9
33155.1,14691.5
33143.1,14681.7
33133.3,14669.7
33125.9,14656
33121.4,14641.2
33119.7,14623.4
33119.7,14195.5
33121.4,14177.7
33125.9,14162.8
33133.3,14149.2
33143.1,14137.2
33155.1,14127.3
33168.8,14120
33183.6,14115.5
33201.4,14113.8
33530.8,14113.8
Z" /> 
<path style="fill:#000000; fill-opacity:1.0; 
stroke:#000000; stroke-width:0; stroke-opacity:1; 
stroke-linecap:round; stroke-linejoin:round;fill-rule:evenodd;"
d="M 21915.2,14705.1
21284.4,14705.1
21284.4,14271.3
21915.2,14271.3
Z" /> 
<path style="fill:#000000; fill-opacity:1.0; 
stroke:#000000; stroke-width:0; stroke-opacity:1; 
stroke-linecap:round; stroke-linejoin:round;fill-rule:evenodd;"
d="M 32830.2,14154.9
32845,14159.4
32858.7,14166.7
32870.7,14176.6
32880.5,14188.5
32887.8,14202.2
32892.3,14217.1
32894.1,14234.9
32894.1,14564.3
32892.3,14582.2
32887.8,14597
32880.5,14610.7
32870.7,14622.7
32858.7,14632.5
32845,14639.8
32830.2,14644.3
32812.3,14646.1
32384.5,14646.1
32366.7,14644.3
32351.8,14639.8
32338.1,14632.5
32326.2,14622.7
32316.3,14610.7
32309,14597
32304.5,14582.2
32302.8,14564.3
32302.8,14234.9
32304.5,14217.1
32309,14202.2
32316.3,14188.5
32326.2,14176.6
32338.1,14166.7
32351.8,14159.4
32366.7,14154.9
32384.5,14153.1
32812.3,14153.1
Z" /> 
<path style="fill:#000000; fill-opacity:1.0; 
stroke:#000000; stroke-width:0; stroke-opacity:1; 
stroke-linecap:round; stroke-linejoin:round;fill-rule:evenodd;"
d="M 29931.5,14508.3
29320.5,14508.3
29320.5,11987.8
29931.5,11987.8
Z" /> 
<path style="fill:#000000; fill-opacity:1.0; 
stroke:#000000; stroke-width:0; stroke-opacity:1; 
stroke-linecap:round; stroke-linejoin:round;fill-rule:evenodd;"
d="M 27608.7,14508.3
26997.6,14508.3
26997.6,11987.8
27608.7,11987.8
Z" /> 
<path style="fill:#000000; fill-opacity:1.0; 
stroke:#000000; stroke-width:0; stroke-opacity:1; 
stroke-linecap:round; stroke-linejoin:round;fill-rule:evenodd;"
d="M 43071.3,14390.2
42440.6,14390.2
42440.6,13326.4
43071.3,13326.4
Z" /> 
<path style="fill:#000000; fill-opacity:1.0; 
stroke:#000000; stroke-width:0; stroke-opacity:1; 
stroke-linecap:round; stroke-linejoin:round;fill-rule:evenodd;"
d="M 44252.4,14390.2
43621.7,14390.2
43621.7,13326.4
44252.4,13326.4
Z" /> 
<path style="fill:#000000; fill-opacity:1.0; 
stroke:#000000; stroke-width:0; stroke-opacity:1; 
stroke-linecap:round; stroke-linejoin:round;fill-rule:evenodd;"
d="M 20162.8,13422.6
20168.9,13430.1
20176.4,13436.2
20184.9,13440.7
20194.1,13443.5
20203.7,13444.5
20781,13444.5
20790.6,13443.5
20799.8,13440.7
20808.3,13436.2
20815.8,13430.1
20821.9,13422.6
20822.8,13420.9
20843.9,13435.6
20852.3,13440.3
20861.5,13443.3
20872.1,13444.5
20876.4,13444.5
20878.2,13450.2
20882.7,13458.7
20888.8,13466.1
20895.4,13471.6
21181.4,13671.8
21189.8,13676.5
21198.9,13679.5
21209.6,13680.7
21916.5,13680.7
21916.5,14114.6
21209.6,14114.6
21200,14115.5
21190.7,14118.3
21181.4,14123.5
20895.4,14323.6
20888.1,14329.9
20882.1,14337.5
20877.8,14346.1
20876.4,14350.8
20872.1,14350.8
20862.5,14351.7
20853.3,14354.5
20843.9,14359.7
20822.8,14374.4
20821.9,14372.7
20815.8,14365.2
20808.3,14359.1
20799.8,14354.5
20790.6,14351.7
20781,14350.8
20203.7,14350.8
20194.1,14351.7
20184.9,14354.5
20176.4,14359.1
20168.9,14365.2
20162.8,14372.7
20161.8,14374.6
20140.8,14359.8
20132.4,14355
20123.3,14352
20112.5,14350.8
20108,14350.8
20106.1,14344.6
20101.5,14336.1
20095.4,14328.6
20089,14323.2
19779.7,14104.9
19779.7,13690.4
20089,13472.1
20096.3,13465.8
20102.2,13458.1
20106.6,13449.5
20108,13444.5
20112.5,13444.5
20122.1,13443.5
20131.3,13440.7
20140.8,13435.5
20161.8,13420.7
Z" /> 
<path style="fill:#000000; fill-opacity:1.0; 
stroke:#000000; stroke-width:0; stroke-opacity:1; 
stroke-linecap:round; stroke-linejoin:round;fill-rule:evenodd;"
d="M 22564.8,13859.6
22579.5,13864.1
22593.1,13871.4
22605.1,13881.2
22614.8,13893.1
22622.1,13906.7
22626.6,13921.5
22628.3,13939.2
22628.3,14230.1
22626.6,14247.8
22622.1,14262.6
22614.8,14276.2
22605.1,14288.1
22593.1,14297.9
22579.5,14305.2
22564.8,14309.7
22547,14311.4
22295.5,14311.4
22277.8,14309.7
22263,14305.2
22249.4,14297.9
22237.5,14288.1
22227.7,14276.2
22220.4,14262.6
22215.9,14247.8
22214.2,14230.1
22214.2,13939.2
22215.9,13921.5
22220.4,13906.7
22227.7,13893.1
22237.5,13881.2
22249.4,13871.4
22263,13864.1
22277.8,13859.6
22295.5,13857.9
22547,13857.9
Z" /> 
<path style="fill:#000000; fill-opacity:1.0; 
stroke:#000000; stroke-width:0; stroke-opacity:1; 
stroke-linecap:round; stroke-linejoin:round;fill-rule:evenodd;"
d="M 31403.3,13505.3
31418.1,13509.8
31431.7,13517
31443.6,13526.8
31453.4,13538.8
31460.7,13552.4
31465.2,13567.1
31466.9,13584.9
31466.9,13875.7
31465.2,13893.5
31460.7,13908.3
31453.4,13921.9
31443.6,13933.8
31431.7,13943.6
31418.1,13950.9
31403.3,13955.3
31385.6,13957.1
31134.1,13957.1
31116.3,13955.3
31101.6,13950.9
31088,13943.6
31076,13933.8
31066.3,13921.9
31059,13908.3
31054.5,13893.5
31052.8,13875.7
31052.8,13584.9
31054.5,13567.1
31059,13552.4
31066.3,13538.8
31076,13526.8
31088,13517
31101.6,13509.8
31116.3,13505.3
31134.1,13503.5
31385.6,13503.5
Z" /> 
<path style="fill:#000000; fill-opacity:1.0; 
stroke:#000000; stroke-width:0; stroke-opacity:1; 
stroke-linecap:round; stroke-linejoin:round;fill-rule:evenodd;"
d="M 30655.3,13485.6
30670.1,13490.1
30683.7,13497.4
30695.6,13507.1
30705.4,13519.1
30712.7,13532.7
30717.1,13547.4
30718.9,13565.2
30718.9,13856
30717.1,13873.8
30712.7,13888.6
30705.4,13902.2
30695.6,13914.1
30683.7,13923.9
30670.1,13931.2
30655.3,13935.7
30637.5,13937.4
30386.1,13937.4
30368.3,13935.7
30353.5,13931.2
30339.9,13923.9
30328,13914.1
30318.2,13902.2
30311,13888.6
30306.5,13873.8
30304.7,13856
30304.7,13565.2
30306.5,13547.4
30311,13532.7
30318.2,13519.1
30328,13507.1
30339.9,13497.4
30353.5,13490.1
30368.3,13485.6
30386.1,13483.9
30637.5,13483.9
Z" /> 
<path style="fill:#000000; fill-opacity:1.0; 
stroke:#000000; stroke-width:0; stroke-opacity:1; 
stroke-linecap:round; stroke-linejoin:round;fill-rule:evenodd;"
d="M 22564.8,13170.6
22579.5,13175.1
22593.1,13182.4
22605.1,13192.2
22614.8,13204.1
22622.1,13217.7
22626.6,13232.5
22628.3,13250.3
22628.3,13541.1
22626.6,13558.9
22622.1,13573.6
22614.8,13587.2
22605.1,13599.2
22593.1,13608.9
22579.5,13616.2
22564.8,13620.7
22547,13622.4
22295.5,13622.4
22277.8,13620.7
22263,13616.2
22249.4,13608.9
22237.5,13599.2
22227.7,13587.2
22220.4,13573.6
22215.9,13558.9
22214.2,13541.1
22214.2,13250.3
22215.9,13232.5
22220.4,13217.7
22227.7,13204.1
22237.5,13192.2
22249.4,13182.4
22263,13175.1
22277.8,13170.6
22295.5,13168.9
22547,13168.9
Z" /> 
<path style="fill:#000000; fill-opacity:1.0; 
stroke:#000000; stroke-width:0; stroke-opacity:1; 
stroke-linecap:round; stroke-linejoin:round;fill-rule:evenodd;"
d="M 33524,13524
33090.2,13524
33090.2,13090.2
33524,13090.2
Z" /> 
<path style="fill:#000000; fill-opacity:1.0; 
stroke:#000000; stroke-width:0; stroke-opacity:1; 
stroke-linecap:round; stroke-linejoin:round;fill-rule:evenodd;"
d="M 21915.2,13524
21284.4,13524
21284.4,13090.2
21915.2,13090.2
Z" /> 
<path style="fill:#000000; fill-opacity:1.0; 
stroke:#000000; stroke-width:0; stroke-opacity:1; 
stroke-linecap:round; stroke-linejoin:round;fill-rule:evenodd;"
d="M 15656.3,12519.8
15713.9,12537.2
15767,12565.6
15813.5,12603.8
15831.9,12626.2
15848.3,12646.2
15851.7,12650.3
15880.1,12703.4
15897.5,12761
15902,12805.9
15902,13052.4
15897.5,13097.3
15879.4,13157.2
15877.5,13161.6
15875.7,13171.1
15875.7,13180.7
15877.5,13190.2
15881.2,13199.1
15886.6,13207.1
15893.4,13214
15901.4,13219.3
15910.3,13223
15919.8,13224.9
15929.5,13224.9
15938.9,13223
15947.8,13219.3
15955.9,13214
15959.4,13210.7
15965.6,13204.6
15988.3,13189.4
15994.6,13185.2
15994.6,13185.2
16026.9,13171.8
16061.3,13165
16096.2,13165
16130.5,13171.8
16162.8,13185.2
16162.8,13185.2
16169.1,13189.4
16191.9,13204.6
16216.7,13229.3
16219,13232.9
16230.2,13249.6
16236.1,13258.4
16249.5,13290.7
16256.3,13325
16256.3,13360
16249.5,13394.3
16236.4,13425.8
16236.1,13426.6
16230.2,13435.5
16216.7,13455.7
16191.9,13480.4
16177.5,13490.1
16162.8,13499.9
16162.8,13499.9
16162.8,13499.9
16130.5,13513.3
16096.2,13520.1
16061.3,13520.1
16026.9,13513.3
15994.6,13499.9
15994.6,13499.9
15994.6,13499.9
15980,13490.1
15965.6,13480.4
15940.8,13455.7
15927.3,13435.5
15921.4,13426.6
15921.1,13425.8
15908,13394.3
15901.2,13360
15901.2,13325
15908.2,13289.8
15910.4,13282.4
15911.4,13272.8
15910.4,13263.2
15907.6,13254
15903.1,13245.4
15897,13238
15889.5,13231.9
15881,13227.3
15871.8,13224.5
15862.2,13223.6
15852.6,13224.5
15843.3,13227.3
15834.8,13231.9
15827.4,13238
15824.1,13241.6
15813.5,13254.5
15767,13292.7
15713.9,13321
15656.3,13338.5
15596.5,13344.4
15536.6,13338.5
15479,13321
15425.9,13292.7
15401.7,13272.8
15379.4,13254.5
15368.8,13241.6
15341.2,13208
15312.8,13154.9
15295.4,13097.3
15290.9,13052.4
15290.9,12805.9
15295.4,12761
15312.8,12703.4
15341.2,12650.3
15379.4,12603.8
15420.1,12570.4
15425.9,12565.6
15425.9,12565.6
15425.9,12565.6
15479,12537.2
15536.6,12519.8
15596.5,12513.9
Z" /> 
<path style="fill:#000000; fill-opacity:1.0; 
stroke:#000000; stroke-width:0; stroke-opacity:1; 
stroke-linecap:round; stroke-linejoin:round;fill-rule:evenodd;"
d="M 18589.4,12519.8
18647,12537.2
18700.1,12565.6
18746.6,12603.8
18765,12626.2
18781.4,12646.2
18784.8,12650.3
18813.1,12703.4
18830.6,12761
18835,12805.9
18835,13052.4
18830.6,13097.3
18813.1,13154.9
18784.8,13208
18784.8,13208
18784.8,13208
18746.6,13254.5
18724.3,13272.8
18700.1,13292.7
18647,13321
18589.4,13338.5
18529.5,13344.4
18469.6,13338.5
18412,13321
18359,13292.7
18312.5,13254.5
18301.9,13241.6
18295,13234.7
18287,13229.4
18278.1,13225.7
18268.6,13223.8
18259,13223.8
18249.5,13225.7
18240.6,13229.4
18232.6,13234.7
18225.8,13241.6
18220.4,13249.6
18216.7,13258.5
18214.8,13268
18214.8,13277.6
18216.7,13287.1
18217.9,13290.4
18224.8,13325
18224.8,13360
18218,13394.3
18204.9,13425.8
18204.6,13426.6
18198.7,13435.5
18185.2,13455.7
18160.4,13480.4
18146,13490.1
18131.3,13499.9
18131.3,13499.9
18131.3,13499.9
18099,13513.3
18064.7,13520.1
18029.8,13520.1
17995.5,13513.3
17963.1,13499.9
17963.1,13499.9
17963.1,13499.9
17948.5,13490.1
17934.1,13480.4
17909.3,13455.7
17895.8,13435.5
17889.9,13426.6
17889.6,13425.8
17876.5,13394.3
17869.7,13360
17869.7,13325
17876.5,13290.7
17889.9,13258.4
17895.8,13249.6
17906.9,13232.9
17909.3,13229.3
17934.1,13204.6
17956.9,13189.4
17963.1,13185.2
17963.1,13185.2
17995.5,13171.8
18029.8,13165
18064.7,13165
18099,13171.8
18131.3,13185.2
18131.3,13185.2
18137.6,13189.4
18160.4,13204.6
18166.6,13210.7
18174,13216.8
18182.5,13221.4
18191.8,13224.2
18201.4,13225.1
18211,13224.2
18220.2,13221.4
18228.7,13216.8
18236.2,13210.7
18242.3,13203.3
18246.8,13194.8
18249.6,13185.5
18250.6,13175.9
18249.6,13166.3
18246.8,13157.1
18246.1,13155.7
18245.7,13154.2
18231.1,13106
18228.4,13097.3
18224,13052.4
18224,12805.9
18228.4,12761
18245.9,12703.4
18274.3,12650.3
18312.5,12603.8
18353.1,12570.4
18359,12565.6
18359,12565.6
18359,12565.6
18412,12537.2
18469.6,12519.8
18529.5,12513.9
Z" /> 
<path style="fill:#000000; fill-opacity:1.0; 
stroke:#000000; stroke-width:0; stroke-opacity:1; 
stroke-linecap:round; stroke-linejoin:round;fill-rule:evenodd;"
d="M 41964,12993.5
41978.9,12998
41992.6,13005.3
42004.5,13015.1
42014.4,13027.1
42021.7,13040.8
42026.2,13055.6
42028,13073.5
42028,13402.9
42026.2,13420.7
42021.7,13435.6
42014.4,13449.3
42004.5,13461.2
41992.6,13471.1
41978.9,13478.4
41964,13482.9
41946.2,13484.6
41518.4,13484.6
41500.5,13482.9
41485.7,13478.4
41472,13471.1
41460,13461.2
41450.2,13449.3
41442.9,13435.6
41438.4,13420.7
41436.6,13402.9
41436.6,13073.5
41438.4,13055.6
41442.9,13040.8
41450.2,13027.1
41460,13015.1
41472,13005.3
41485.7,12998
41500.5,12993.5
41518.4,12991.7
41946.2,12991.7
Z" /> 
<path style="fill:#000000; fill-opacity:1.0; 
stroke:#000000; stroke-width:0; stroke-opacity:1; 
stroke-linecap:round; stroke-linejoin:round;fill-rule:evenodd;"
d="M 31403.3,12816.3
31418.1,12820.8
31431.7,12828.1
31443.6,12837.9
31453.4,12849.8
31460.7,12863.4
31465.2,12878.1
31466.9,12895.9
31466.9,13186.8
31465.2,13204.5
31460.7,13219.3
31453.4,13232.9
31443.6,13244.8
31431.7,13254.6
31418.1,13261.9
31403.3,13266.4
31385.6,13268.1
31134.1,13268.1
31116.3,13266.4
31101.6,13261.9
31088,13254.6
31076,13244.8
31066.3,13232.9
31059,13219.3
31054.5,13204.5
31052.8,13186.8
31052.8,12895.9
31054.5,12878.1
31059,12863.4
31066.3,12849.8
31076,12837.9
31088,12828.1
31101.6,12820.8
31116.3,12816.3
31134.1,12814.6
31385.6,12814.6
Z" /> 
<path style="fill:#000000; fill-opacity:1.0; 
stroke:#000000; stroke-width:0; stroke-opacity:1; 
stroke-linecap:round; stroke-linejoin:round;fill-rule:evenodd;"
d="M 30655.3,12796.6
30670.1,12801.1
30683.7,12808.4
30695.6,12818.2
30705.4,12830.1
30712.7,12843.7
30717.1,12858.5
30718.9,12876.2
30718.9,13167.1
30717.1,13184.8
30712.7,13199.6
30705.4,13213.2
30695.6,13225.1
30683.7,13234.9
30670.1,13242.2
30655.3,13246.7
30637.5,13248.4
30386.1,13248.4
30368.3,13246.7
30353.5,13242.2
30339.9,13234.9
30328,13225.1
30318.2,13213.2
30311,13199.6
30306.5,13184.8
30304.7,13167.1
30304.7,12876.2
30306.5,12858.5
30311,12843.7
30318.2,12830.1
30328,12818.2
30339.9,12808.4
30353.5,12801.1
30368.3,12796.6
30386.1,12794.9
30637.5,12794.9
Z" /> 
<path style="fill:#000000; fill-opacity:1.0; 
stroke:#000000; stroke-width:0; stroke-opacity:1; 
stroke-linecap:round; stroke-linejoin:round;fill-rule:evenodd;"
d="M 23549,12737.6
23563.8,12742.1
23577.4,12749.3
23589.3,12759.1
23599.1,12771
23606.4,12784.6
23610.8,12799.4
23612.6,12817.2
23612.6,13108
23610.8,13125.8
23606.4,13140.5
23599.1,13154.2
23589.3,13166.1
23577.4,13175.9
23563.8,13183.1
23549,13187.6
23531.2,13189.4
23279.8,13189.4
23262,13187.6
23247.2,13183.1
23233.6,13175.9
23221.7,13166.1
23211.9,13154.2
23204.7,13140.5
23200.2,13125.8
23198.4,13108
23198.4,12817.2
23200.2,12799.4
23204.7,12784.6
23211.9,12771
23221.7,12759.1
23233.6,12749.3
23247.2,12742.1
23262,12737.6
23279.8,12735.8
23531.2,12735.8
Z" /> 
<path style="fill:#000000; fill-opacity:1.0; 
stroke:#000000; stroke-width:0; stroke-opacity:1; 
stroke-linecap:round; stroke-linejoin:round;fill-rule:evenodd;"
d="M 17683.5,13185.4
16442.5,13185.4
16442.5,12633.5
17683.5,12633.5
Z" /> 
<path style="fill:#000000; fill-opacity:1.0; 
stroke:#000000; stroke-width:0; stroke-opacity:1; 
stroke-linecap:round; stroke-linejoin:round;fill-rule:evenodd;"
d="M 36775.9,12468.6
36815.4,12484.9
36826.7,12492.5
36850.9,12508.7
36881.1,12538.9
36881.1,12538.9
36904.8,12574.4
36917.1,12604.1
36921.7,12612.6
36927.8,12620.1
36935.3,12626.2
36943.8,12630.7
36953,12633.5
36962.6,12634.5
36972.2,12633.5
36981.4,12630.7
36989.9,12626.2
36997.4,12620.1
37003.5,12612.6
37008.1,12604.1
37020.4,12574.4
37044.1,12538.9
37044.1,12538.9
37074.3,12508.7
37098.5,12492.5
37109.8,12484.9
37149.3,12468.6
37191.2,12460.2
37234,12460.2
37275.9,12468.6
37315.4,12484.9
37326.7,12492.5
37350.9,12508.7
37381.1,12538.9
37381.1,12538.9
37404.8,12574.4
37417.1,12604.1
37421.7,12612.6
37427.8,12620.1
37435.3,12626.2
37443.8,12630.7
37453,12633.5
37462.6,12634.5
37472.2,12633.5
37481.4,12630.7
37489.9,12626.2
37497.4,12620.1
37503.5,12612.6
37508.1,12604.1
37520.4,12574.4
37544.1,12538.9
37544.1,12538.9
37574.3,12508.7
37598.5,12492.5
37609.8,12484.9
37649.3,12468.6
37691.2,12460.2
37734,12460.2
37775.9,12468.6
37815.4,12484.9
37826.7,12492.5
37850.9,12508.7
37881.1,12538.9
37881.1,12538.9
37904.8,12574.4
37917.1,12604.1
37921.7,12612.6
37927.8,12620.1
37935.3,12626.2
37943.8,12630.7
37953,12633.5
37962.6,12634.5
37972.2,12633.5
37981.4,12630.7
37989.9,12626.2
37997.4,12620.1
38003.5,12612.6
38008.1,12604.1
38020.4,12574.4
38044.1,12538.9
38044.1,12538.9
38074.3,12508.7
38098.5,12492.5
38109.8,12484.9
38149.3,12468.6
38191.2,12460.2
38234,12460.2
38275.9,12468.6
38315.4,12484.9
38326.7,12492.5
38350.9,12508.7
38381.1,12538.9
38381.1,12538.9
38404.8,12574.4
38417.1,12604.1
38421.7,12612.6
38427.8,12620.1
38435.3,12626.2
38443.8,12630.7
38453,12633.5
38462.6,12634.5
38472.2,12633.5
38481.4,12630.7
38489.9,12626.2
38497.4,12620.1
38503.5,12612.6
38508.1,12604.1
38520.4,12574.4
38544.1,12538.9
38544.1,12538.9
38574.3,12508.7
38598.5,12492.5
38609.8,12484.9
38649.3,12468.6
38691.2,12460.2
38734,12460.2
38775.9,12468.6
38815.4,12484.9
38826.7,12492.5
38850.9,12508.7
38881.1,12538.9
38881.1,12538.9
38905.5,12575.5
38911.7,12582.9
38919.1,12589
38927.6,12593.6
38936.9,12596.4
38946.5,12597.3
38956.1,12596.4
38965.3,12593.6
38973.8,12589
38981.3,12582.9
38987.4,12575.5
38991.9,12566.9
38994.7,12557.7
38995.7,12548.1
38995.7,12460.2
39429.5,12460.2
39429.5,12894.1
38995.7,12894.1
38995.7,12806.2
38994.7,12796.6
38991.9,12787.4
38987.4,12778.9
38981.3,12771.4
38973.8,12765.3
38965.3,12760.7
38956.1,12757.9
38946.5,12757
38936.9,12757.9
38927.6,12760.7
38919.1,12765.3
38911.7,12771.4
38905.5,12778.9
38891.8,12799.4
38881.1,12815.4
38850.9,12845.7
38844.7,12849.8
38815.4,12869.4
38775.9,12885.8
38734,12894.1
38691.2,12894.1
38649.3,12885.8
38609.8,12869.4
38580.5,12849.8
38574.3,12845.7
38544.1,12815.4
38530.4,12794.9
38520.4,12779.9
38508.1,12750.2
38503.5,12741.7
38497.4,12734.3
38489.9,12728.2
38481.4,12723.6
38472.2,12720.8
38462.6,12719.9
38453,12720.8
38443.8,12723.6
38435.3,12728.2
38427.8,12734.3
38421.7,12741.7
38417.1,12750.2
38404.8,12779.9
38394.8,12794.9
38381.1,12815.4
38350.9,12845.7
38344.7,12849.8
38315.4,12869.4
38275.9,12885.8
38234,12894.1
38191.2,12894.1
38149.3,12885.8
38109.8,12869.4
38080.5,12849.8
38074.3,12845.7
38044.1,12815.4
38030.4,12794.9
38020.4,12779.9
38008.1,12750.2
38003.5,12741.7
37997.4,12734.3
37989.9,12728.2
37981.4,12723.6
37972.2,12720.8
37962.6,12719.9
37953,12720.8
37943.8,12723.6
37935.3,12728.2
37927.8,12734.3
37921.7,12741.7
37917.1,12750.2
37904.8,12779.9
37894.8,12794.9
37881.1,12815.4
37850.9,12845.7
37844.7,12849.8
37815.4,12869.4
37775.9,12885.8
37734,12894.1
37691.2,12894.1
37649.3,12885.8
37609.8,12869.4
37580.5,12849.8
37574.3,12845.7
37544.1,12815.4
37530.4,12794.9
37520.4,12779.9
37508.1,12750.2
37503.5,12741.7
37497.4,12734.3
37489.9,12728.2
37481.4,12723.6
37472.2,12720.8
37462.6,12719.9
37453,12720.8
37443.8,12723.6
37435.3,12728.2
37427.8,12734.3
37421.7,12741.7
37417.1,12750.2
37404.8,12779.9
37394.8,12794.9
37381.1,12815.4
37350.9,12845.7
37344.7,12849.8
37315.4,12869.4
37275.9,12885.8
37234,12894.1
37191.2,12894.1
37149.3,12885.8
37109.8,12869.4
37080.5,12849.8
37074.3,12845.7
37044.1,12815.4
37030.4,12794.9
37020.4,12779.9
37008.1,12750.2
37003.5,12741.7
36997.4,12734.3
36989.9,12728.2
36981.4,12723.6
36972.2,12720.8
36962.6,12719.9
36953,12720.8
36943.8,12723.6
36935.3,12728.2
36927.8,12734.3
36921.7,12741.7
36917.1,12750.2
36904.8,12779.9
36894.8,12794.9
36881.1,12815.4
36850.9,12845.7
36844.7,12849.8
36815.4,12869.4
36775.9,12885.8
36734,12894.1
36691.2,12894.1
36649.3,12885.8
36609.8,12869.4
36580.5,12849.8
36574.3,12845.7
36544.1,12815.4
36530.4,12794.9
36520.4,12779.9
36504,12740.4
36495.7,12698.5
36495.7,12655.8
36504,12613.9
36520.4,12574.4
36544.1,12538.9
36544.1,12538.9
36574.3,12508.7
36598.5,12492.5
36609.8,12484.9
36649.3,12468.6
36691.2,12460.2
36734,12460.2
Z" /> 
<path style="fill:#000000; fill-opacity:1.0; 
stroke:#000000; stroke-width:0; stroke-opacity:1; 
stroke-linecap:round; stroke-linejoin:round;fill-rule:evenodd;"
d="M 43130.3,12736.6
42499.6,12736.6
42499.6,11672.8
43130.3,11672.8
Z" /> 
<path style="fill:#000000; fill-opacity:1.0; 
stroke:#000000; stroke-width:0; stroke-opacity:1; 
stroke-linecap:round; stroke-linejoin:round;fill-rule:evenodd;"
d="M 44311.4,12736.6
43680.7,12736.6
43680.7,11672.8
44311.4,11672.8
Z" /> 
<path style="fill:#000000; fill-opacity:1.0; 
stroke:#000000; stroke-width:0; stroke-opacity:1; 
stroke-linecap:round; stroke-linejoin:round;fill-rule:evenodd;"
d="M 24764.2,12736.6
24172.8,12736.6
24172.8,11830.3
24764.2,11830.3
Z" /> 
<path style="fill:#000000; fill-opacity:1.0; 
stroke:#000000; stroke-width:0; stroke-opacity:1; 
stroke-linecap:round; stroke-linejoin:round;fill-rule:evenodd;"
d="M 25748.4,12736.6
25157.1,12736.6
25157.1,11830.3
25748.4,11830.3
Z" /> 
<path style="fill:#000000; fill-opacity:1.0; 
stroke:#000000; stroke-width:0; stroke-opacity:1; 
stroke-linecap:round; stroke-linejoin:round;fill-rule:evenodd;"
d="M 41964,12186.4
41978.9,12190.9
41992.6,12198.2
42004.5,12208.1
42014.4,12220
42021.7,12233.7
42026.2,12248.6
42028,12266.4
42028,12595.8
42026.2,12613.7
42021.7,12628.5
42014.4,12642.2
42004.5,12654.2
41992.6,12664
41978.9,12671.3
41964,12675.8
41946.2,12677.6
41518.4,12677.6
41500.5,12675.8
41485.7,12671.3
41472,12664
41460,12654.2
41450.2,12642.2
41442.9,12628.5
41438.4,12613.7
41436.6,12595.8
41436.6,12266.4
41438.4,12248.6
41442.9,12233.7
41450.2,12220
41460,12208.1
41472,12198.2
41485.7,12190.9
41500.5,12186.4
41518.4,12184.6
41946.2,12184.6
Z" /> 
<path style="fill:#000000; fill-opacity:1.0; 
stroke:#000000; stroke-width:0; stroke-opacity:1; 
stroke-linecap:round; stroke-linejoin:round;fill-rule:evenodd;"
d="M 23549,12048.6
23563.8,12053.1
23577.4,12060.4
23589.3,12070.1
23599.1,12082.1
23606.4,12095.7
23610.8,12110.4
23612.6,12128.2
23612.6,12419
23610.8,12436.8
23606.4,12451.6
23599.1,12465.2
23589.3,12477.1
23577.4,12486.9
23563.8,12494.2
23549,12498.6
23531.2,12500.4
23279.8,12500.4
23262,12498.6
23247.2,12494.2
23233.6,12486.9
23221.7,12477.1
23211.9,12465.2
23204.7,12451.6
23200.2,12436.8
23198.4,12419
23198.4,12128.2
23200.2,12110.4
23204.7,12095.7
23211.9,12082.1
23221.7,12070.1
23233.6,12060.4
23247.2,12053.1
23262,12048.6
23279.8,12046.9
23531.2,12046.9
Z" /> 
<path style="fill:#000000; fill-opacity:1.0; 
stroke:#000000; stroke-width:0; stroke-opacity:1; 
stroke-linecap:round; stroke-linejoin:round;fill-rule:evenodd;"
d="M 21786.9,11763.2
21801.7,11767.7
21815.4,11775
21827.4,11784.8
21837.2,11796.8
21844.5,11810.5
21849,11825.3
21850.8,11843.2
21850.8,12271
21849,12288.8
21844.5,12303.7
21837.2,12317.4
21827.4,12329.3
21815.4,12339.2
21801.7,12346.5
21786.9,12351
21769,12352.8
21439.6,12352.8
21421.8,12351
21406.9,12346.5
21393.3,12339.2
21381.3,12329.3
21371.4,12317.4
21364.1,12303.7
21359.6,12288.8
21357.9,12271
21357.9,11843.2
21359.6,11825.3
21364.1,11810.5
21371.4,11796.8
21381.3,11784.8
21393.3,11775
21406.9,11767.7
21421.8,11763.2
21439.6,11761.4
21769,11761.4
Z" /> 
<path style="fill:#000000; fill-opacity:1.0; 
stroke:#000000; stroke-width:0; stroke-opacity:1; 
stroke-linecap:round; stroke-linejoin:round;fill-rule:evenodd;"
d="M 20979.8,11763.2
20994.6,11767.7
21008.3,11775
21020.3,11784.8
21030.1,11796.8
21037.4,11810.5
21041.9,11825.3
21043.7,11843.2
21043.7,12271
21041.9,12288.8
21037.4,12303.7
21030.1,12317.4
21020.3,12329.3
21008.3,12339.2
20994.6,12346.5
20979.8,12351
20961.9,12352.8
20632.5,12352.8
20614.7,12351
20599.9,12346.5
20586.2,12339.2
20574.2,12329.3
20564.4,12317.4
20557,12303.7
20552.5,12288.8
20550.8,12271
20550.8,11843.2
20552.5,11825.3
20557,11810.5
20564.4,11796.8
20574.2,11784.8
20586.2,11775
20599.9,11767.7
20614.7,11763.2
20632.5,11761.4
20961.9,11761.4
Z" /> 
<path style="fill:#000000; fill-opacity:1.0; 
stroke:#000000; stroke-width:0; stroke-opacity:1; 
stroke-linecap:round; stroke-linejoin:round;fill-rule:evenodd;"
d="M 15468,11517.1
15482.8,11521.6
15496.5,11528.9
15508.5,11538.8
15518.3,11550.7
15525.6,11564.4
15530.1,11579.3
15531.9,11597.1
15531.9,12024.9
15530.1,12042.8
15525.6,12057.6
15518.3,12071.3
15508.5,12083.3
15496.5,12093.1
15482.8,12100.4
15468,12104.9
15450.1,12106.7
15120.7,12106.7
15102.9,12104.9
15088,12100.4
15074.4,12093.1
15062.4,12083.3
15052.5,12071.3
15045.2,12057.6
15040.7,12042.8
15039,12024.9
15039,11597.1
15040.7,11579.3
15045.2,11564.4
15052.5,11550.7
15062.4,11538.8
15074.4,11528.9
15088,11521.6
15102.9,11517.1
15120.7,11515.4
15450.1,11515.4
Z" /> 
<path style="fill:#000000; fill-opacity:1.0; 
stroke:#000000; stroke-width:0; stroke-opacity:1; 
stroke-linecap:round; stroke-linejoin:round;fill-rule:evenodd;"
d="M 14660.9,11517.1
14675.7,11521.6
14689.4,11528.9
14701.4,11538.8
14711.2,11550.7
14718.5,11564.4
14723,11579.3
14724.8,11597.1
14724.8,12024.9
14723,12042.8
14718.5,12057.6
14711.2,12071.3
14701.4,12083.3
14689.4,12093.1
14675.7,12100.4
14660.9,12104.9
14643,12106.7
14313.6,12106.7
14295.8,12104.9
14281,12100.4
14267.3,12093.1
14255.3,12083.3
14245.5,12071.3
14238.1,12057.6
14233.6,12042.8
14231.9,12024.9
14231.9,11597.1
14233.6,11579.3
14238.1,11564.4
14245.5,11550.7
14255.3,11538.8
14267.3,11528.9
14281,11521.6
14295.8,11517.1
14313.6,11515.4
14643,11515.4
Z" /> 
<path style="fill:#000000; fill-opacity:1.0; 
stroke:#000000; stroke-width:0; stroke-opacity:1; 
stroke-linecap:round; stroke-linejoin:round;fill-rule:evenodd;"
d="M 17570.7,11672.6
17585.4,11677.1
17599,11684.4
17611,11694.2
17620.8,11706.1
17628,11719.7
17632.5,11734.4
17634.3,11752.2
17634.3,12003.7
17632.5,12021.5
17628,12036.2
17620.8,12049.8
17611,12061.8
17599,12071.5
17585.4,12078.8
17570.7,12083.3
17552.9,12085
17262.1,12085
17244.3,12083.3
17229.5,12078.8
17215.9,12071.5
17204,12061.8
17194.2,12049.8
17186.9,12036.2
17182.5,12021.5
17180.7,12003.7
17180.7,11752.2
17182.5,11734.4
17186.9,11719.7
17194.2,11706.1
17204,11694.2
17215.9,11684.4
17229.5,11677.1
17244.3,11672.6
17262.1,11670.9
17552.9,11670.9
Z" /> 
<path style="fill:#000000; fill-opacity:1.0; 
stroke:#000000; stroke-width:0; stroke-opacity:1; 
stroke-linecap:round; stroke-linejoin:round;fill-rule:evenodd;"
d="M 16881.7,11672.6
16896.5,11677.1
16910.1,11684.4
16922,11694.2
16931.8,11706.1
16939,11719.7
16943.5,11734.4
16945.3,11752.2
16945.3,12003.7
16943.5,12021.5
16939,12036.2
16931.8,12049.8
16922,12061.8
16910.1,12071.5
16896.5,12078.8
16881.7,12083.3
16863.9,12085
16573.1,12085
16555.3,12083.3
16540.6,12078.8
16526.9,12071.5
16515,12061.8
16505.2,12049.8
16498,12036.2
16493.5,12021.5
16491.7,12003.7
16491.7,11752.2
16493.5,11734.4
16498,11719.7
16505.2,11706.1
16515,11694.2
16526.9,11684.4
16540.6,11677.1
16555.3,11672.6
16573.1,11670.9
16863.9,11670.9
Z" /> 
<path style="fill:#000000; fill-opacity:1.0; 
stroke:#000000; stroke-width:0; stroke-opacity:1; 
stroke-linecap:round; stroke-linejoin:round;fill-rule:evenodd;"
d="M 20113.7,11182.5
20128.5,11187
20142.2,11194.3
20154.2,11204.1
20164,11216.1
20171.3,11229.8
20175.8,11244.6
20177.6,11262.5
20177.6,11591.9
20175.8,11609.7
20171.3,11624.6
20164,11638.2
20154.2,11650.2
20142.2,11660.1
20128.5,11667.4
20113.7,11671.9
20095.8,11673.6
19668,11673.6
19650.1,11671.9
19635.3,11667.4
19621.6,11660.1
19609.6,11650.2
19599.8,11638.2
19592.5,11624.6
19588,11609.7
19586.2,11591.9
19586.2,11262.5
19588,11244.6
19592.5,11229.8
19599.8,11216.1
19609.6,11204.1
19621.6,11194.3
19635.3,11187
19650.1,11182.5
19668,11180.7
20095.8,11180.7
Z" /> 
<path style="fill:#000000; fill-opacity:1.0; 
stroke:#000000; stroke-width:0; stroke-opacity:1; 
stroke-linecap:round; stroke-linejoin:round;fill-rule:evenodd;"
d="M 28362,11231.7
28376.8,11236.1
28390.4,11243.4
28402.3,11253.2
28412.1,11265.1
28419.4,11278.7
28423.8,11293.5
28425.6,11311.3
28425.6,11562.7
28423.8,11580.5
28419.4,11595.3
28412.1,11608.9
28402.3,11620.8
28390.4,11630.6
28376.8,11637.9
28362,11642.3
28344.2,11644.1
28053.4,11644.1
28035.6,11642.3
28020.9,11637.9
28007.3,11630.6
27995.3,11620.8
27985.5,11608.9
27978.3,11595.3
27973.8,11580.5
27972,11562.7
27972,11311.3
27973.8,11293.5
27978.3,11278.7
27985.5,11265.1
27995.3,11253.2
28007.3,11243.4
28020.9,11236.1
28035.6,11231.7
28053.4,11229.9
28344.2,11229.9
Z" /> 
<path style="fill:#000000; fill-opacity:1.0; 
stroke:#000000; stroke-width:0; stroke-opacity:1; 
stroke-linecap:round; stroke-linejoin:round;fill-rule:evenodd;"
d="M 29051,11231.7
29065.7,11236.1
29079.4,11243.4
29091.3,11253.2
29101.1,11265.1
29108.3,11278.7
29112.8,11293.5
29114.6,11311.3
29114.6,11562.7
29112.8,11580.5
29108.3,11595.3
29101.1,11608.9
29091.3,11620.8
29079.4,11630.6
29065.7,11637.9
29051,11642.3
29033.2,11644.1
28742.4,11644.1
28724.6,11642.3
28709.8,11637.9
28696.2,11630.6
28684.3,11620.8
28674.5,11608.9
28667.3,11595.3
28662.8,11580.5
28661,11562.7
28661,11311.3
28662.8,11293.5
28667.3,11278.7
28674.5,11265.1
28684.3,11253.2
28696.2,11243.4
28709.8,11236.1
28724.6,11231.7
28742.4,11229.9
29033.2,11229.9
Z" /> 
<path style="fill:#000000; fill-opacity:1.0; 
stroke:#000000; stroke-width:0; stroke-opacity:1; 
stroke-linecap:round; stroke-linejoin:round;fill-rule:evenodd;"
d="M 30212.4,11212
30227.2,11216.5
30240.8,11223.7
30252.7,11233.5
30262.5,11245.5
30269.8,11259.1
30274.2,11273.8
30276,11291.6
30276,11543.1
30274.2,11560.8
30269.8,11575.6
30262.5,11589.2
30252.7,11601.1
30240.8,11610.9
30227.2,11618.2
30212.4,11622.7
30194.6,11624.4
29903.8,11624.4
29886,11622.7
29871.3,11618.2
29857.7,11610.9
29845.7,11601.1
29835.9,11589.2
29828.7,11575.6
29824.2,11560.8
29822.4,11543.1
29822.4,11291.6
29824.2,11273.8
29828.7,11259.1
29835.9,11245.5
29845.7,11233.5
29857.7,11223.7
29871.3,11216.5
29886,11212
29903.8,11210.2
30194.6,11210.2
Z" /> 
<path style="fill:#000000; fill-opacity:1.0; 
stroke:#000000; stroke-width:0; stroke-opacity:1; 
stroke-linecap:round; stroke-linejoin:round;fill-rule:evenodd;"
d="M 36747.8,11212
36762.6,11216.5
36776.2,11223.7
36788.1,11233.5
36797.9,11245.5
36805.2,11259.1
36809.7,11273.8
36811.4,11291.6
36811.4,11543.1
36809.7,11560.8
36805.2,11575.6
36797.9,11589.2
36788.1,11601.1
36776.2,11610.9
36762.6,11618.2
36747.8,11622.7
36730.1,11624.4
36439.2,11624.4
36421.5,11622.7
36406.7,11618.2
36393.1,11610.9
36381.2,11601.1
36371.4,11589.2
36364.1,11575.6
36359.6,11560.8
36357.9,11543.1
36357.9,11291.6
36359.6,11273.8
36364.1,11259.1
36371.4,11245.5
36381.2,11233.5
36393.1,11223.7
36406.7,11216.5
36421.5,11212
36439.2,11210.2
36730.1,11210.2
Z" /> 
<path style="fill:#000000; fill-opacity:1.0; 
stroke:#000000; stroke-width:0; stroke-opacity:1; 
stroke-linecap:round; stroke-linejoin:round;fill-rule:evenodd;"
d="M 30901.4,11212
30916.1,11216.5
30929.7,11223.7
30941.7,11233.5
30951.5,11245.5
30958.7,11259.1
30963.2,11273.8
30965,11291.6
30965,11543.1
30963.2,11560.8
30958.7,11575.6
30951.5,11589.2
30941.7,11601.1
30929.7,11610.9
30916.1,11618.2
30901.4,11622.7
30883.6,11624.4
30592.8,11624.4
30575,11622.7
30560.2,11618.2
30546.6,11610.9
30534.7,11601.1
30524.9,11589.2
30517.6,11575.6
30513.2,11560.8
30511.4,11543.1
30511.4,11291.6
30513.2,11273.8
30517.6,11259.1
30524.9,11245.5
30534.7,11233.5
30546.6,11223.7
30560.2,11216.5
30575,11212
30592.8,11210.2
30883.6,11210.2
Z" /> 
<path style="fill:#000000; fill-opacity:1.0; 
stroke:#000000; stroke-width:0; stroke-opacity:1; 
stroke-linecap:round; stroke-linejoin:round;fill-rule:evenodd;"
d="M 37436.8,11212
37451.6,11216.5
37465.2,11223.7
37477.1,11233.5
37486.9,11245.5
37494.2,11259.1
37498.6,11273.8
37500.4,11291.6
37500.4,11543.1
37498.6,11560.8
37494.2,11575.6
37486.9,11589.2
37477.1,11601.1
37465.2,11610.9
37451.6,11618.2
37436.8,11622.7
37419,11624.4
37128.2,11624.4
37110.4,11622.7
37095.7,11618.2
37082.1,11610.9
37070.1,11601.1
37060.4,11589.2
37053.1,11575.6
37048.6,11560.8
37046.9,11543.1
37046.9,11291.6
37048.6,11273.8
37053.1,11259.1
37060.4,11245.5
37070.1,11233.5
37082.1,11223.7
37095.7,11216.5
37110.4,11212
37128.2,11210.2
37419,11210.2
Z" /> 
<path style="fill:#000000; fill-opacity:1.0; 
stroke:#000000; stroke-width:0; stroke-opacity:1; 
stroke-linecap:round; stroke-linejoin:round;fill-rule:evenodd;"
d="M 32303.5,11594.9
31653.1,11594.9
31653.1,11042.9
32303.5,11042.9
Z" /> 
<path style="fill:#000000; fill-opacity:1.0; 
stroke:#000000; stroke-width:0; stroke-opacity:1; 
stroke-linecap:round; stroke-linejoin:round;fill-rule:evenodd;"
d="M 35433.5,11594.9
34783.1,11594.9
34783.1,11042.9
35433.5,11042.9
Z" /> 
<path style="fill:#000000; fill-opacity:1.0; 
stroke:#000000; stroke-width:0; stroke-opacity:1; 
stroke-linecap:round; stroke-linejoin:round;fill-rule:evenodd;"
d="M 41968.9,11594.9
41318.5,11594.9
41318.5,11042.9
41968.9,11042.9
Z" /> 
<path style="fill:#000000; fill-opacity:1.0; 
stroke:#000000; stroke-width:0; stroke-opacity:1; 
stroke-linecap:round; stroke-linejoin:round;fill-rule:evenodd;"
d="M 38839,11594.9
38188.6,11594.9
38188.6,11042.9
38839,11042.9
Z" /> 
<path style="fill:#000000; fill-opacity:1.0; 
stroke:#000000; stroke-width:0; stroke-opacity:1; 
stroke-linecap:round; stroke-linejoin:round;fill-rule:evenodd;"
d="M 22712.1,10926.6
22726.9,10931.1
22740.6,10938.4
22752.6,10948.2
22762.4,10960.2
22769.7,10973.9
22774.2,10988.7
22776,11006.6
22776,11434.4
22774.2,11452.2
22769.7,11467.1
22762.4,11480.7
22752.6,11492.7
22740.6,11502.6
22726.9,11509.9
22712.1,11514.4
22694.2,11516.1
22364.8,11516.1
22347,11514.4
22332.1,11509.9
22318.5,11502.6
22306.5,11492.7
22296.6,11480.7
22289.3,11467.1
22284.8,11452.2
22283.1,11434.4
22283.1,11006.6
22284.8,10988.7
22289.3,10973.9
22296.6,10960.2
22306.5,10948.2
22318.5,10938.4
22332.1,10931.1
22347,10926.6
22364.8,10924.8
22694.2,10924.8
Z" /> 
<path style="fill:#000000; fill-opacity:1.0; 
stroke:#000000; stroke-width:0; stroke-opacity:1; 
stroke-linecap:round; stroke-linejoin:round;fill-rule:evenodd;"
d="M 23519.2,10926.6
23534,10931.1
23547.7,10938.4
23559.7,10948.2
23569.5,10960.2
23576.8,10973.9
23581.3,10988.7
23583.1,11006.6
23583.1,11434.4
23581.3,11452.2
23576.8,11467.1
23569.5,11480.7
23559.7,11492.7
23547.7,11502.6
23534,11509.9
23519.2,11514.4
23501.3,11516.1
23171.9,11516.1
23154.1,11514.4
23139.2,11509.9
23125.5,11502.6
23113.6,11492.7
23103.7,11480.7
23096.4,11467.1
23091.9,11452.2
23090.2,11434.4
23090.2,11006.6
23091.9,10988.7
23096.4,10973.9
23103.7,10960.2
23113.6,10948.2
23125.5,10938.4
23139.2,10931.1
23154.1,10926.6
23171.9,10924.8
23501.3,10924.8
Z" /> 
<path style="fill:#000000; fill-opacity:1.0; 
stroke:#000000; stroke-width:0; stroke-opacity:1; 
stroke-linecap:round; stroke-linejoin:round;fill-rule:evenodd;"
d="M 21078.5,10975.8
21093.3,10980.2
21106.9,10987.5
21118.8,10997.3
21128.6,11009.2
21135.9,11022.8
21140.4,11037.6
21142.1,11055.4
21142.1,11306.8
21140.4,11324.6
21135.9,11339.4
21128.6,11353
21118.8,11364.9
21106.9,11374.7
21093.3,11382
21078.5,11386.4
21060.8,11388.2
20769.9,11388.2
20752.2,11386.4
20737.4,11382
20723.8,11374.7
20711.9,11364.9
20702.1,11353
20694.8,11339.4
20690.3,11324.6
20688.6,11306.8
20688.6,11055.4
20690.3,11037.6
20694.8,11022.8
20702.1,11009.2
20711.9,10997.3
20723.8,10987.5
20737.4,10980.2
20752.2,10975.8
20769.9,10974
21060.8,10974
Z" /> 
<path style="fill:#000000; fill-opacity:1.0; 
stroke:#000000; stroke-width:0; stroke-opacity:1; 
stroke-linecap:round; stroke-linejoin:round;fill-rule:evenodd;"
d="M 21767.5,10975.8
21782.3,10980.2
21795.9,10987.5
21807.8,10997.3
21817.6,11009.2
21824.9,11022.8
21829.4,11037.6
21831.1,11055.4
21831.1,11306.8
21829.4,11324.6
21824.9,11339.4
21817.6,11353
21807.8,11364.9
21795.9,11374.7
21782.3,11382
21767.5,11386.4
21749.7,11388.2
21458.9,11388.2
21441.1,11386.4
21426.4,11382
21412.8,11374.7
21400.8,11364.9
21391.1,11353
21383.8,11339.4
21379.3,11324.6
21377.6,11306.8
21377.6,11055.4
21379.3,11037.6
21383.8,11022.8
21391.1,11009.2
21400.8,10997.3
21412.8,10987.5
21426.4,10980.2
21441.1,10975.8
21458.9,10974
21749.7,10974
Z" /> 
<path style="fill:#000000; fill-opacity:1.0; 
stroke:#000000; stroke-width:0; stroke-opacity:1; 
stroke-linecap:round; stroke-linejoin:round;fill-rule:evenodd;"
d="M 17665.3,10449.5
17673.6,10452
17681.3,10456.1
17688,10461.6
17693.5,10468.3
17697.6,10476
17700.1,10484.3
17701.2,10495.3
17701.2,11209.4
17700.1,11220.4
17697.6,11228.7
17693.5,11236.4
17688,11243.1
17681.3,11248.6
17673.6,11252.7
17665.3,11255.2
17654.3,11256.3
17471.7,11256.3
17460.7,11255.2
17452.4,11252.7
17444.7,11248.6
17438,11243.1
17432.5,11236.4
17428.4,11228.7
17425.9,11220.4
17424.8,11209.4
17424.8,10495.3
17425.9,10484.3
17428.4,10476
17432.5,10468.3
17438,10461.6
17444.7,10456.1
17452.4,10452
17460.7,10449.5
17471.7,10448.4
17654.3,10448.4
Z" /> 
<path style="fill:#000000; fill-opacity:1.0; 
stroke:#000000; stroke-width:0; stroke-opacity:1; 
stroke-linecap:round; stroke-linejoin:round;fill-rule:evenodd;"
d="M 16665.3,10449.5
16673.6,10452
16681.3,10456.1
16688,10461.6
16693.5,10468.3
16697.6,10476
16700.1,10484.3
16701.2,10495.3
16701.2,11209.4
16700.1,11220.4
16697.6,11228.7
16693.5,11236.4
16688,11243.1
16681.3,11248.6
16673.6,11252.7
16665.3,11255.2
16654.3,11256.3
16471.7,11256.3
16460.7,11255.2
16452.4,11252.7
16444.7,11248.6
16438,11243.1
16432.5,11236.4
16428.4,11228.7
16425.9,11220.4
16424.8,11209.4
16424.8,10495.3
16425.9,10484.3
16428.4,10476
16432.5,10468.3
16438,10461.6
16444.7,10456.1
16452.4,10452
16460.7,10449.5
16471.7,10448.4
16654.3,10448.4
Z" /> 
<path style="fill:#000000; fill-opacity:1.0; 
stroke:#000000; stroke-width:0; stroke-opacity:1; 
stroke-linecap:round; stroke-linejoin:round;fill-rule:evenodd;"
d="M 17165.3,10449.5
17173.6,10452
17181.3,10456.1
17188,10461.6
17193.5,10468.3
17197.6,10476
17200.1,10484.3
17201.2,10495.3
17201.2,11209.4
17200.1,11220.4
17197.6,11228.7
17193.5,11236.4
17188,11243.1
17181.3,11248.6
17173.6,11252.7
17165.3,11255.2
17154.3,11256.3
16971.7,11256.3
16960.7,11255.2
16952.4,11252.7
16944.7,11248.6
16938,11243.1
16932.5,11236.4
16928.4,11228.7
16925.9,11220.4
16924.8,11209.4
16924.8,10495.3
16925.9,10484.3
16928.4,10476
16932.5,10468.3
16938,10461.6
16944.7,10456.1
16952.4,10452
16960.7,10449.5
16971.7,10448.4
17154.3,10448.4
Z" /> 
<path style="fill:#000000; fill-opacity:1.0; 
stroke:#000000; stroke-width:0; stroke-opacity:1; 
stroke-linecap:round; stroke-linejoin:round;fill-rule:evenodd;"
d="M 18165.3,10449.5
18173.6,10452
18181.3,10456.1
18188,10461.6
18193.5,10468.3
18197.6,10476
18200.1,10484.3
18201.2,10495.3
18201.2,11209.4
18200.1,11220.4
18197.6,11228.7
18193.5,11236.4
18188,11243.1
18181.3,11248.6
18173.6,11252.7
18165.3,11255.2
18154.3,11256.3
17971.7,11256.3
17960.7,11255.2
17952.4,11252.7
17944.7,11248.6
17938,11243.1
17932.5,11236.4
17928.4,11228.7
17925.9,11220.4
17924.8,11209.4
17924.8,10495.3
17925.9,10484.3
17928.4,10476
17932.5,10468.3
17938,10461.6
17944.7,10456.1
17952.4,10452
17960.7,10449.5
17971.7,10448.4
18154.3,10448.4
Z" /> 
<path style="fill:#000000; fill-opacity:1.0; 
stroke:#000000; stroke-width:0; stroke-opacity:1; 
stroke-linecap:round; stroke-linejoin:round;fill-rule:evenodd;"
d="M 15079.8,10031
15138.7,10042.8
15249.9,10088.8
15349.9,10155.6
15434.9,10240.7
15501.8,10340.7
15547.8,10451.8
15554.3,10484.3
15570,10563.7
15571.3,10569.8
15571.3,10690.1
15547.8,10808
15501.8,10919.2
15434.9,11019.2
15349.9,11104.2
15249.9,11171.1
15138.7,11217.1
15105.3,11223.7
15020.8,11240.6
14900.5,11240.6
14816,11223.7
14782.5,11217.1
14671.4,11171.1
14571.4,11104.2
14486.3,11019.2
14419.5,10919.2
14373.5,10808
14350,10690.1
14350,10569.8
14351.2,10563.7
14367,10484.3
14373.5,10451.8
14419.5,10340.7
14486.3,10240.7
14571.4,10155.6
14671.4,10088.8
14782.5,10042.8
14841.5,10031
14900.5,10019.3
15020.8,10019.3
Z" /> 
<path style="fill:#000000; fill-opacity:1.0; 
stroke:#000000; stroke-width:0; stroke-opacity:1; 
stroke-linecap:round; stroke-linejoin:round;fill-rule:evenodd;"
d="M 43426.2,10031
43485.2,10042.8
43596.3,10088.8
43696.3,10155.6
43781.4,10240.7
43848.2,10340.7
43894.3,10451.8
43900.7,10484.3
43916.5,10563.7
43917.7,10569.8
43917.7,10690.1
43894.3,10808
43848.2,10919.2
43781.4,11019.2
43696.3,11104.2
43596.3,11171.1
43485.2,11217.1
43451.8,11223.7
43367.2,11240.6
43246.9,11240.6
43162.4,11223.7
43129,11217.1
43017.8,11171.1
42917.8,11104.2
42832.8,11019.2
42766,10919.2
42719.9,10808
42696.5,10690.1
42696.5,10569.8
42697.7,10563.7
42713.5,10484.3
42719.9,10451.8
42766,10340.7
42832.8,10240.7
42917.8,10155.6
43017.8,10088.8
43129,10042.8
43188,10031
43246.9,10019.3
43367.2,10019.3
Z" /> 
<path style="fill:#000000; fill-opacity:1.0; 
stroke:#000000; stroke-width:0; stroke-opacity:1; 
stroke-linecap:round; stroke-linejoin:round;fill-rule:evenodd;"
d="M 37869.6,10473.8
37884.4,10478.3
37898.1,10485.6
37910.1,10495.5
37919.9,10507.4
37927.2,10521.1
37931.7,10536
37933.5,10553.8
37933.5,10883.2
37931.7,10901.1
37927.2,10915.9
37919.9,10929.6
37910.1,10941.6
37898.1,10951.4
37884.4,10958.7
37869.6,10963.2
37851.7,10965
37423.9,10965
37406,10963.2
37391.2,10958.7
37377.5,10951.4
37365.5,10941.6
37355.7,10929.6
37348.4,10915.9
37343.9,10901.1
37342.1,10883.2
37342.1,10553.8
37343.9,10536
37348.4,10521.1
37355.7,10507.4
37365.5,10495.5
37377.5,10485.6
37391.2,10478.3
37406,10473.8
37423.9,10472
37851.7,10472
Z" /> 
<path style="fill:#000000; fill-opacity:1.0; 
stroke:#000000; stroke-width:0; stroke-opacity:1; 
stroke-linecap:round; stroke-linejoin:round;fill-rule:evenodd;"
d="M 30389.2,10473.8
30404.1,10478.3
30417.8,10485.6
30429.7,10495.5
30439.6,10507.4
30446.9,10521.1
30451.4,10536
30453.1,10553.8
30453.1,10883.2
30451.4,10901.1
30446.9,10915.9
30439.6,10929.6
30429.7,10941.6
30417.8,10951.4
30404.1,10958.7
30389.2,10963.2
30371.4,10965
29943.6,10965
29925.7,10963.2
29910.9,10958.7
29897.2,10951.4
29885.2,10941.6
29875.4,10929.6
29868.1,10915.9
29863.6,10901.1
29861.8,10883.2
29861.8,10553.8
29863.6,10536
29868.1,10521.1
29875.4,10507.4
29885.2,10495.5
29897.2,10485.6
29910.9,10478.3
29925.7,10473.8
29943.6,10472
30371.4,10472
Z" /> 
<path style="fill:#000000; fill-opacity:1.0; 
stroke:#000000; stroke-width:0; stroke-opacity:1; 
stroke-linecap:round; stroke-linejoin:round;fill-rule:evenodd;"
d="M 31334.1,10473.8
31349,10478.3
31362.6,10485.6
31374.6,10495.5
31384.5,10507.4
31391.8,10521.1
31396.3,10536
31398,10553.8
31398,10883.2
31396.3,10901.1
31391.8,10915.9
31384.5,10929.6
31374.6,10941.6
31362.6,10951.4
31349,10958.7
31334.1,10963.2
31316.3,10965
30888.4,10965
30870.6,10963.2
30855.8,10958.7
30842.1,10951.4
30830.1,10941.6
30820.3,10929.6
30813,10915.9
30808.5,10901.1
30806.7,10883.2
30806.7,10553.8
30808.5,10536
30813,10521.1
30820.3,10507.4
30830.1,10495.5
30842.1,10485.6
30855.8,10478.3
30870.6,10473.8
30888.4,10472
31316.3,10472
Z" /> 
<path style="fill:#000000; fill-opacity:1.0; 
stroke:#000000; stroke-width:0; stroke-opacity:1; 
stroke-linecap:round; stroke-linejoin:round;fill-rule:evenodd;"
d="M 36924.7,10473.8
36939.5,10478.3
36953.2,10485.6
36965.2,10495.5
36975,10507.4
36982.3,10521.1
36986.8,10536
36988.6,10553.8
36988.6,10883.2
36986.8,10901.1
36982.3,10915.9
36975,10929.6
36965.2,10941.6
36953.2,10951.4
36939.5,10958.7
36924.7,10963.2
36906.8,10965
36479,10965
36461.2,10963.2
36446.3,10958.7
36432.6,10951.4
36420.7,10941.6
36410.8,10929.6
36403.5,10915.9
36399,10901.1
36397.2,10883.2
36397.2,10553.8
36399,10536
36403.5,10521.1
36410.8,10507.4
36420.7,10495.5
36432.6,10485.6
36446.3,10478.3
36461.2,10473.8
36479,10472
36906.8,10472
Z" /> 
<path style="fill:#000000; fill-opacity:1.0; 
stroke:#000000; stroke-width:0; stroke-opacity:1; 
stroke-linecap:round; stroke-linejoin:round;fill-rule:evenodd;"
d="M 20113.7,10375.4
20128.5,10379.9
20142.2,10387.2
20154.2,10397
20164,10409
20171.3,10422.7
20175.8,10437.5
20177.6,10455.4
20177.6,10784.8
20175.8,10802.6
20171.3,10817.5
20164,10831.1
20154.2,10843.1
20142.2,10853
20128.5,10860.3
20113.7,10864.8
20095.8,10866.5
19668,10866.5
19650.1,10864.8
19635.3,10860.3
19621.6,10853
19609.6,10843.1
19599.8,10831.1
19592.5,10817.5
19588,10802.6
19586.2,10784.8
19586.2,10455.4
19588,10437.5
19592.5,10422.7
19599.8,10409
19609.6,10397
19621.6,10387.2
19635.3,10379.9
19650.1,10375.4
19668,10373.6
20095.8,10373.6
Z" /> 
<path style="fill:#000000; fill-opacity:1.0; 
stroke:#000000; stroke-width:0; stroke-opacity:1; 
stroke-linecap:round; stroke-linejoin:round;fill-rule:evenodd;"
d="M 21078.5,10168.7
21093.3,10173.2
21106.9,10180.4
21118.8,10190.2
21128.6,10202.1
21135.9,10215.8
21140.4,10230.5
21142.1,10248.3
21142.1,10499.7
21140.4,10517.5
21135.9,10532.3
21128.6,10545.9
21118.8,10557.8
21106.9,10567.6
21093.3,10574.9
21078.5,10579.4
21060.8,10581.1
20769.9,10581.1
20752.2,10579.4
20737.4,10574.9
20723.8,10567.6
20711.9,10557.8
20702.1,10545.9
20694.8,10532.3
20690.3,10517.5
20688.6,10499.7
20688.6,10248.3
20690.3,10230.5
20694.8,10215.8
20702.1,10202.1
20711.9,10190.2
20723.8,10180.4
20737.4,10173.2
20752.2,10168.7
20769.9,10166.9
21060.8,10166.9
Z" /> 
<path style="fill:#000000; fill-opacity:1.0; 
stroke:#000000; stroke-width:0; stroke-opacity:1; 
stroke-linecap:round; stroke-linejoin:round;fill-rule:evenodd;"
d="M 21767.5,10168.7
21782.3,10173.2
21795.9,10180.4
21807.8,10190.2
21817.6,10202.1
21824.9,10215.8
21829.4,10230.5
21831.1,10248.3
21831.1,10499.7
21829.4,10517.5
21824.9,10532.3
21817.6,10545.9
21807.8,10557.8
21795.9,10567.6
21782.3,10574.9
21767.5,10579.4
21749.7,10581.1
21458.9,10581.1
21441.1,10579.4
21426.4,10574.9
21412.8,10567.6
21400.8,10557.8
21391.1,10545.9
21383.8,10532.3
21379.3,10517.5
21377.6,10499.7
21377.6,10248.3
21379.3,10230.5
21383.8,10215.8
21391.1,10202.1
21400.8,10190.2
21412.8,10180.4
21426.4,10173.2
21441.1,10168.7
21458.9,10166.9
21749.7,10166.9
Z" /> 
<path style="fill:#000000; fill-opacity:1.0; 
stroke:#000000; stroke-width:0; stroke-opacity:1; 
stroke-linecap:round; stroke-linejoin:round;fill-rule:evenodd;"
d="M 22657.9,10472.8
22263.4,10472.8
22263.4,9960.24
22657.9,9960.24
Z" /> 
<path style="fill:#000000; fill-opacity:1.0; 
stroke:#000000; stroke-width:0; stroke-opacity:1; 
stroke-linecap:round; stroke-linejoin:round;fill-rule:evenodd;"
d="M 23957.1,10472.8
23562.6,10472.8
23562.6,9960.24
23957.1,9960.24
Z" /> 
<path style="fill:#000000; fill-opacity:1.0; 
stroke:#000000; stroke-width:0; stroke-opacity:1; 
stroke-linecap:round; stroke-linejoin:round;fill-rule:evenodd;"
d="M 37869.6,9666.72
37884.4,9671.22
37898.1,9678.53
37910.1,9688.37
37919.9,9700.35
37927.2,9714.03
37931.7,9728.87
37933.5,9746.72
37933.5,10076.1
37931.7,10094
37927.2,10108.8
37919.9,10122.5
37910.1,10134.5
37898.1,10144.3
37884.4,10151.6
37869.6,10156.1
37851.7,10157.9
37423.9,10157.9
37406,10156.1
37391.2,10151.6
37377.5,10144.3
37365.5,10134.5
37355.7,10122.5
37348.4,10108.8
37343.9,10094
37342.1,10076.1
37342.1,9746.72
37343.9,9728.87
37348.4,9714.03
37355.7,9700.35
37365.5,9688.37
37377.5,9678.53
37391.2,9671.22
37406,9666.72
37423.9,9664.96
37851.7,9664.96
Z" /> 
<path style="fill:#000000; fill-opacity:1.0; 
stroke:#000000; stroke-width:0; stroke-opacity:1; 
stroke-linecap:round; stroke-linejoin:round;fill-rule:evenodd;"
d="M 36924.7,9666.72
36939.5,9671.22
36953.2,9678.53
36965.2,9688.37
36975,9700.35
36982.3,9714.03
36986.8,9728.87
36988.6,9746.72
36988.6,10076.1
36986.8,10094
36982.3,10108.8
36975,10122.5
36965.2,10134.5
36953.2,10144.3
36939.5,10151.6
36924.7,10156.1
36906.8,10157.9
36479,10157.9
36461.2,10156.1
36446.3,10151.6
36432.6,10144.3
36420.7,10134.5
36410.8,10122.5
36403.5,10108.8
36399,10094
36397.2,10076.1
36397.2,9746.72
36399,9728.87
36403.5,9714.03
36410.8,9700.35
36420.7,9688.37
36432.6,9678.53
36446.3,9671.22
36461.2,9666.72
36479,9664.96
36906.8,9664.96
Z" /> 
<path style="fill:#000000; fill-opacity:1.0; 
stroke:#000000; stroke-width:0; stroke-opacity:1; 
stroke-linecap:round; stroke-linejoin:round;fill-rule:evenodd;"
d="M 30389.2,9666.72
30404.1,9671.22
30417.8,9678.53
30429.7,9688.37
30439.6,9700.35
30446.9,9714.03
30451.4,9728.87
30453.1,9746.72
30453.1,10076.1
30451.4,10094
30446.9,10108.8
30439.6,10122.5
30429.7,10134.5
30417.8,10144.3
30404.1,10151.6
30389.2,10156.1
30371.4,10157.9
29943.6,10157.9
29925.7,10156.1
29910.9,10151.6
29897.2,10144.3
29885.2,10134.5
29875.4,10122.5
29868.1,10108.8
29863.6,10094
29861.8,10076.1
29861.8,9746.72
29863.6,9728.87
29868.1,9714.03
29875.4,9700.35
29885.2,9688.37
29897.2,9678.53
29910.9,9671.22
29925.7,9666.72
29943.6,9664.96
30371.4,9664.96
Z" /> 
<path style="fill:#000000; fill-opacity:1.0; 
stroke:#000000; stroke-width:0; stroke-opacity:1; 
stroke-linecap:round; stroke-linejoin:round;fill-rule:evenodd;"
d="M 31334.1,9666.72
31349,9671.22
31362.6,9678.53
31374.6,9688.37
31384.5,9700.35
31391.8,9714.03
31396.3,9728.87
31398,9746.72
31398,10076.1
31396.3,10094
31391.8,10108.8
31384.5,10122.5
31374.6,10134.5
31362.6,10144.3
31349,10151.6
31334.1,10156.1
31316.3,10157.9
30888.4,10157.9
30870.6,10156.1
30855.8,10151.6
30842.1,10144.3
30830.1,10134.5
30820.3,10122.5
30813,10108.8
30808.5,10094
30806.7,10076.1
30806.7,9746.72
30808.5,9728.87
30813,9714.03
30820.3,9700.35
30830.1,9688.37
30842.1,9678.53
30855.8,9671.22
30870.6,9666.72
30888.4,9664.96
31316.3,9664.96
Z" /> 
<path style="fill:#000000; fill-opacity:1.0; 
stroke:#000000; stroke-width:0; stroke-opacity:1; 
stroke-linecap:round; stroke-linejoin:round;fill-rule:evenodd;"
d="M 35433.5,9823.23
34783.1,9823.23
34783.1,9271.26
35433.5,9271.26
Z" /> 
<path style="fill:#000000; fill-opacity:1.0; 
stroke:#000000; stroke-width:0; stroke-opacity:1; 
stroke-linecap:round; stroke-linejoin:round;fill-rule:evenodd;"
d="M 32303.5,9823.23
31653.1,9823.23
31653.1,9271.26
32303.5,9271.26
Z" /> 
<path style="fill:#000000; fill-opacity:1.0; 
stroke:#000000; stroke-width:0; stroke-opacity:1; 
stroke-linecap:round; stroke-linejoin:round;fill-rule:evenodd;"
d="M 41968.9,9823.23
41318.5,9823.23
41318.5,9271.26
41968.9,9271.26
Z" /> 
<path style="fill:#000000; fill-opacity:1.0; 
stroke:#000000; stroke-width:0; stroke-opacity:1; 
stroke-linecap:round; stroke-linejoin:round;fill-rule:evenodd;"
d="M 38839,9823.23
38188.6,9823.23
38188.6,9271.26
38839,9271.26
Z" /> 
<path style="fill:#000000; fill-opacity:1.0; 
stroke:#000000; stroke-width:0; stroke-opacity:1; 
stroke-linecap:round; stroke-linejoin:round;fill-rule:evenodd;"
d="M 20933.5,9813.39
20413,9813.39
20413,8769.29
20933.5,8769.29
Z" /> 
<path style="fill:#000000; fill-opacity:1.0; 
stroke:#000000; stroke-width:0; stroke-opacity:1; 
stroke-linecap:round; stroke-linejoin:round;fill-rule:evenodd;"
d="M 19902,9813.39
19381.5,9813.39
19381.5,8769.29
19902,8769.29
Z" /> 
<path style="fill:#000000; fill-opacity:1.0; 
stroke:#000000; stroke-width:0; stroke-opacity:1; 
stroke-linecap:round; stroke-linejoin:round;fill-rule:evenodd;"
d="M 15579.8,9204.03
15593.8,9208.28
15606.7,9215.18
15618.1,9224.46
15627.3,9235.77
15634.2,9248.67
15638.5,9262.68
15640.2,9279.66
15640.2,9696.72
15638.5,9713.7
15634.2,9727.7
15627.3,9740.61
15618.1,9751.92
15606.7,9761.2
15593.8,9768.1
15579.8,9772.34
15562.9,9774.02
14358.4,9774.02
14341.4,9772.34
14327.4,9768.1
14314.5,9761.2
14303.2,9751.92
14293.9,9740.61
14287,9727.7
14282.8,9713.7
14281.1,9696.72
14281.1,9279.66
14282.8,9262.68
14287,9248.67
14293.9,9235.77
14303.2,9224.46
14314.5,9215.18
14327.4,9208.28
14341.4,9204.03
14358.4,9202.36
15562.9,9202.36
Z" /> 
<path style="fill:#000000; fill-opacity:1.0; 
stroke:#000000; stroke-width:0; stroke-opacity:1; 
stroke-linecap:round; stroke-linejoin:round;fill-rule:evenodd;"
d="M 26789.3,8819.59
26797.6,8822.11
26805.3,8826.2
26812,8831.7
26817.5,8838.41
26821.6,8846.06
26824.1,8854.36
26825.2,8865.41
26825.2,9500.73
26824.1,9511.78
26821.6,9520.08
26817.5,9527.73
26812,9534.44
26805.3,9539.94
26797.6,9544.03
26789.3,9546.55
26778.3,9547.64
26595.7,9547.64
26584.7,9546.55
26576.4,9544.03
26568.7,9539.94
26562,9534.44
26556.5,9527.73
26552.4,9520.08
26549.9,9511.78
26548.8,9500.73
26548.8,8865.41
26549.9,8854.36
26552.4,8846.06
26556.5,8838.41
26562,8831.7
26568.7,8826.2
26576.4,8822.11
26584.7,8819.59
26595.7,8818.5
26778.3,8818.5
Z" /> 
<path style="fill:#000000; fill-opacity:1.0; 
stroke:#000000; stroke-width:0; stroke-opacity:1; 
stroke-linecap:round; stroke-linejoin:round;fill-rule:evenodd;"
d="M 27289.3,8819.59
27297.6,8822.11
27305.3,8826.2
27312,8831.7
27317.5,8838.41
27321.6,8846.06
27324.1,8854.36
27325.2,8865.41
27325.2,9500.73
27324.1,9511.78
27321.6,9520.08
27317.5,9527.73
27312,9534.44
27305.3,9539.94
27297.6,9544.03
27289.3,9546.55
27278.3,9547.64
27095.7,9547.64
27084.7,9546.55
27076.4,9544.03
27068.7,9539.94
27062,9534.44
27056.5,9527.73
27052.4,9520.08
27049.9,9511.78
27048.8,9500.73
27048.8,8865.41
27049.9,8854.36
27052.4,8846.06
27056.5,8838.41
27062,8831.7
27068.7,8826.2
27076.4,8822.11
27084.7,8819.59
27095.7,8818.5
27278.3,8818.5
Z" /> 
<path style="fill:#000000; fill-opacity:1.0; 
stroke:#000000; stroke-width:0; stroke-opacity:1; 
stroke-linecap:round; stroke-linejoin:round;fill-rule:evenodd;"
d="M 26289.3,8819.59
26297.6,8822.11
26305.3,8826.2
26312,8831.7
26317.5,8838.41
26321.6,8846.06
26324.1,8854.36
26325.2,8865.41
26325.2,9500.73
26324.1,9511.78
26321.6,9520.08
26317.5,9527.73
26312,9534.44
26305.3,9539.94
26297.6,9544.03
26289.3,9546.55
26278.3,9547.64
26095.7,9547.64
26084.7,9546.55
26076.4,9544.03
26068.7,9539.94
26062,9534.44
26056.5,9527.73
26052.4,9520.08
26049.9,9511.78
26048.8,9500.73
26048.8,8865.41
26049.9,8854.36
26052.4,8846.06
26056.5,8838.41
26062,8831.7
26068.7,8826.2
26076.4,8822.11
26084.7,8819.59
26095.7,8818.5
26278.3,8818.5
Z" /> 
<path style="fill:#000000; fill-opacity:1.0; 
stroke:#000000; stroke-width:0; stroke-opacity:1; 
stroke-linecap:round; stroke-linejoin:round;fill-rule:evenodd;"
d="M 25789.3,8819.59
25797.6,8822.11
25805.3,8826.2
25812,8831.7
25817.5,8838.41
25821.6,8846.06
25824.1,8854.36
25825.2,8865.41
25825.2,9500.73
25824.1,9511.78
25821.6,9520.08
25817.5,9527.73
25812,9534.44
25805.3,9539.94
25797.6,9544.03
25789.3,9546.55
25778.3,9547.64
25595.7,9547.64
25584.7,9546.55
25576.4,9544.03
25568.7,9539.94
25562,9534.44
25556.5,9527.73
25552.4,9520.08
25549.9,9511.78
25548.8,9500.73
25548.8,8865.41
25549.9,8854.36
25552.4,8846.06
25556.5,8838.41
25562,8831.7
25568.7,8826.2
25576.4,8822.11
25584.7,8819.59
25595.7,8818.5
25778.3,8818.5
Z" /> 
<path style="fill:#000000; fill-opacity:1.0; 
stroke:#000000; stroke-width:0; stroke-opacity:1; 
stroke-linecap:round; stroke-linejoin:round;fill-rule:evenodd;"
d="M 24936.5,9017.11
24951.3,9021.61
24965,9028.92
24977,9038.76
24986.8,9050.75
24994.1,9064.42
24998.6,9079.26
25000.4,9097.11
25000.4,9426.51
24998.6,9444.36
24994.1,9459.2
24986.8,9472.88
24977,9484.86
24965,9494.7
24951.3,9502.01
24936.5,9506.51
24918.6,9508.27
24490.8,9508.27
24473,9506.51
24458.1,9502.01
24444.4,9494.7
24432.5,9484.86
24422.6,9472.88
24415.3,9459.2
24410.8,9444.36
24409.1,9426.51
24409.1,9097.11
24410.8,9079.26
24415.3,9064.42
24422.6,9050.75
24432.5,9038.76
24444.4,9028.92
24458.1,9021.61
24473,9017.11
24490.8,9015.35
24918.6,9015.35
Z" /> 
<path style="fill:#000000; fill-opacity:1.0; 
stroke:#000000; stroke-width:0; stroke-opacity:1; 
stroke-linecap:round; stroke-linejoin:round;fill-rule:evenodd;"
d="M 23189.4,9429.53
22204.3,9429.53
22204.3,8798.82
23189.4,8798.82
Z" /> 
<path style="fill:#000000; fill-opacity:1.0; 
stroke:#000000; stroke-width:0; stroke-opacity:1; 
stroke-linecap:round; stroke-linejoin:round;fill-rule:evenodd;"
d="M 17165.3,8500.69
17173.6,8503.21
17181.3,8507.3
17188,8512.8
17193.5,8519.51
17197.6,8527.16
17200.1,8535.46
17201.2,8546.51
17201.2,9260.57
17200.1,9271.63
17197.6,9279.92
17193.5,9287.58
17188,9294.28
17181.3,9299.78
17173.6,9303.87
17165.3,9306.39
17154.3,9307.48
16971.7,9307.48
16960.7,9306.39
16952.4,9303.87
16944.7,9299.78
16938,9294.28
16932.5,9287.58
16928.4,9279.92
16925.9,9271.63
16924.8,9260.57
16924.8,8546.51
16925.9,8535.46
16928.4,8527.16
16932.5,8519.51
16938,8512.8
16944.7,8507.3
16952.4,8503.21
16960.7,8500.69
16971.7,8499.61
17154.3,8499.61
Z" /> 
<path style="fill:#000000; fill-opacity:1.0; 
stroke:#000000; stroke-width:0; stroke-opacity:1; 
stroke-linecap:round; stroke-linejoin:round;fill-rule:evenodd;"
d="M 17665.3,8500.69
17673.6,8503.21
17681.3,8507.3
17688,8512.8
17693.5,8519.51
17697.6,8527.16
17700.1,8535.46
17701.2,8546.51
17701.2,9260.57
17700.1,9271.63
17697.6,9279.92
17693.5,9287.58
17688,9294.28
17681.3,9299.78
17673.6,9303.87
17665.3,9306.39
17654.3,9307.48
17471.7,9307.48
17460.7,9306.39
17452.4,9303.87
17444.7,9299.78
17438,9294.28
17432.5,9287.58
17428.4,9279.92
17425.9,9271.63
17424.8,9260.57
17424.8,8546.51
17425.9,8535.46
17428.4,8527.16
17432.5,8519.51
17438,8512.8
17444.7,8507.3
17452.4,8503.21
17460.7,8500.69
17471.7,8499.61
17654.3,8499.61
Z" /> 
<path style="fill:#000000; fill-opacity:1.0; 
stroke:#000000; stroke-width:0; stroke-opacity:1; 
stroke-linecap:round; stroke-linejoin:round;fill-rule:evenodd;"
d="M 18165.3,8500.69
18173.6,8503.21
18181.3,8507.3
18188,8512.8
18193.5,8519.51
18197.6,8527.16
18200.1,8535.46
18201.2,8546.51
18201.2,9260.57
18200.1,9271.63
18197.6,9279.92
18193.5,9287.58
18188,9294.28
18181.3,9299.78
18173.6,9303.87
18165.3,9306.39
18154.3,9307.48
17971.7,9307.48
17960.7,9306.39
17952.4,9303.87
17944.7,9299.78
17938,9294.28
17932.5,9287.58
17928.4,9279.92
17925.9,9271.63
17924.8,9260.57
17924.8,8546.51
17925.9,8535.46
17928.4,8527.16
17932.5,8519.51
17938,8512.8
17944.7,8507.3
17952.4,8503.21
17960.7,8500.69
17971.7,8499.61
18154.3,8499.61
Z" /> 
<path style="fill:#000000; fill-opacity:1.0; 
stroke:#000000; stroke-width:0; stroke-opacity:1; 
stroke-linecap:round; stroke-linejoin:round;fill-rule:evenodd;"
d="M 16665.3,8500.69
16673.6,8503.21
16681.3,8507.3
16688,8512.8
16693.5,8519.51
16697.6,8527.16
16700.1,8535.46
16701.2,8546.51
16701.2,9260.57
16700.1,9271.63
16697.6,9279.92
16693.5,9287.58
16688,9294.28
16681.3,9299.78
16673.6,9303.87
16665.3,9306.39
16654.3,9307.48
16471.7,9307.48
16460.7,9306.39
16452.4,9303.87
16444.7,9299.78
16438,9294.28
16432.5,9287.58
16428.4,9279.92
16425.9,9271.63
16424.8,9260.57
16424.8,8546.51
16425.9,8535.46
16428.4,8527.16
16432.5,8519.51
16438,8512.8
16444.7,8507.3
16452.4,8503.21
16460.7,8500.69
16471.7,8499.61
16654.3,8499.61
Z" /> 
<path style="fill:#000000; fill-opacity:1.0; 
stroke:#000000; stroke-width:0; stroke-opacity:1; 
stroke-linecap:round; stroke-linejoin:round;fill-rule:evenodd;"
d="M 45720.3,7972.05
45803.3,8006.44
45813.5,8010.66
45897.4,8066.71
45968.7,8138.06
46024.7,8221.84
46024.8,8221.95
46063.4,8315.16
46083.1,8414.12
46083.1,8515.02
46063.4,8613.97
46028.1,8699.12
46024.8,8707.19
45968.7,8791.08
45897.4,8862.42
45813.5,8918.48
45813.5,8918.48
45813.5,8918.48
45720.3,8957.09
45621.3,8976.77
45520.4,8976.77
45421.5,8957.09
45328.2,8918.48
45328.2,8918.48
45328.2,8918.48
45244.4,8862.42
45173,8791.08
45117,8707.19
45113.6,8699.12
45078.3,8613.97
45058.7,8515.02
45058.7,8414.12
45078.3,8315.16
45117,8221.95
45117,8221.84
45173,8138.06
45244.4,8066.71
45328.2,8010.66
45338.4,8006.44
45421.5,7972.05
45520.4,7952.36
45621.3,7952.36
Z" /> 
<path style="fill:#000000; fill-opacity:1.0; 
stroke:#000000; stroke-width:0; stroke-opacity:1; 
stroke-linecap:round; stroke-linejoin:round;fill-rule:evenodd;"
d="M 29134.3,8878.35
28621.7,8878.35
28621.7,8483.86
29134.3,8483.86
Z" /> 
<path style="fill:#000000; fill-opacity:1.0; 
stroke:#000000; stroke-width:0; stroke-opacity:1; 
stroke-linecap:round; stroke-linejoin:round;fill-rule:evenodd;"
d="M 32816.9,8051.88
32825.2,8054.39
32832.9,8058.48
32839.6,8063.99
32845.1,8070.69
32849.1,8078.34
32851.7,8086.64
32852.8,8097.69
32852.8,8811.76
32851.7,8822.81
32849.1,8831.11
32845.1,8838.76
32839.6,8845.46
32832.9,8850.97
32825.2,8855.06
32816.9,8857.57
32805.9,8858.66
32623.3,8858.66
32612.2,8857.57
32603.9,8855.06
32596.3,8850.97
32589.6,8845.46
32584.1,8838.76
32580,8831.11
32577.5,8822.81
32576.4,8811.76
32576.4,8097.69
32577.5,8086.64
32580,8078.34
32584.1,8070.69
32589.6,8063.99
32596.3,8058.48
32603.9,8054.39
32612.2,8051.88
32623.3,8050.79
32805.9,8050.79
Z" /> 
<path style="fill:#000000; fill-opacity:1.0; 
stroke:#000000; stroke-width:0; stroke-opacity:1; 
stroke-linecap:round; stroke-linejoin:round;fill-rule:evenodd;"
d="M 33316.9,8051.88
33325.2,8054.39
33332.9,8058.48
33339.6,8063.99
33345.1,8070.69
33349.1,8078.34
33351.7,8086.64
33352.8,8097.69
33352.8,8811.76
33351.7,8822.81
33349.1,8831.11
33345.1,8838.76
33339.6,8845.46
33332.9,8850.97
33325.2,8855.06
33316.9,8857.57
33305.9,8858.66
33123.3,8858.66
33112.2,8857.57
33103.9,8855.06
33096.3,8850.97
33089.6,8845.46
33084.1,8838.76
33080,8831.11
33077.5,8822.81
33076.4,8811.76
33076.4,8097.69
33077.5,8086.64
33080,8078.34
33084.1,8070.69
33089.6,8063.99
33096.3,8058.48
33103.9,8054.39
33112.2,8051.88
33123.3,8050.79
33305.9,8050.79
Z" /> 
<path style="fill:#000000; fill-opacity:1.0; 
stroke:#000000; stroke-width:0; stroke-opacity:1; 
stroke-linecap:round; stroke-linejoin:round;fill-rule:evenodd;"
d="M 33816.9,8051.88
33825.2,8054.39
33832.9,8058.48
33839.6,8063.99
33845.1,8070.69
33849.1,8078.34
33851.7,8086.64
33852.8,8097.69
33852.8,8811.76
33851.7,8822.81
33849.1,8831.11
33845.1,8838.76
33839.6,8845.46
33832.9,8850.97
33825.2,8855.06
33816.9,8857.57
33805.9,8858.66
33623.3,8858.66
33612.2,8857.57
33603.9,8855.06
33596.3,8850.97
33589.6,8845.46
33584.1,8838.76
33580,8831.11
33577.5,8822.81
33576.4,8811.76
33576.4,8097.69
33577.5,8086.64
33580,8078.34
33584.1,8070.69
33589.6,8063.99
33596.3,8058.48
33603.9,8054.39
33612.2,8051.88
33623.3,8050.79
33805.9,8050.79
Z" /> 
<path style="fill:#000000; fill-opacity:1.0; 
stroke:#000000; stroke-width:0; stroke-opacity:1; 
stroke-linecap:round; stroke-linejoin:round;fill-rule:evenodd;"
d="M 34316.9,8051.88
34325.2,8054.39
34332.9,8058.48
34339.6,8063.99
34345.1,8070.69
34349.1,8078.34
34351.7,8086.64
34352.8,8097.69
34352.8,8811.76
34351.7,8822.81
34349.1,8831.11
34345.1,8838.76
34339.6,8845.46
34332.9,8850.97
34325.2,8855.06
34316.9,8857.57
34305.9,8858.66
34123.3,8858.66
34112.2,8857.57
34103.9,8855.06
34096.3,8850.97
34089.6,8845.46
34084.1,8838.76
34080,8831.11
34077.5,8822.81
34076.4,8811.76
34076.4,8097.69
34077.5,8086.64
34080,8078.34
34084.1,8070.69
34089.6,8063.99
34096.3,8058.48
34103.9,8054.39
34112.2,8051.88
34123.3,8050.79
34305.9,8050.79
Z" /> 
<path style="fill:#000000; fill-opacity:1.0; 
stroke:#000000; stroke-width:0; stroke-opacity:1; 
stroke-linecap:round; stroke-linejoin:round;fill-rule:evenodd;"
d="M 38131.9,8051.88
38140.2,8054.39
38147.8,8058.48
38154.5,8063.99
38160,8070.69
38164.1,8078.34
38166.6,8086.64
38167.7,8097.69
38167.7,8811.76
38166.6,8822.81
38164.1,8831.11
38160,8838.76
38154.5,8845.46
38147.8,8850.97
38140.2,8855.06
38131.9,8857.57
38120.8,8858.66
37938.2,8858.66
37927.2,8857.57
37918.9,8855.06
37911.2,8850.97
37904.5,8845.46
37899,8838.76
37894.9,8831.11
37892.4,8822.81
37891.3,8811.76
37891.3,8097.69
37892.4,8086.64
37894.9,8078.34
37899,8070.69
37904.5,8063.99
37911.2,8058.48
37918.9,8054.39
37927.2,8051.88
37938.2,8050.79
38120.8,8050.79
Z" /> 
<path style="fill:#000000; fill-opacity:1.0; 
stroke:#000000; stroke-width:0; stroke-opacity:1; 
stroke-linecap:round; stroke-linejoin:round;fill-rule:evenodd;"
d="M 38631.9,8051.88
38640.2,8054.39
38647.8,8058.48
38654.5,8063.99
38660,8070.69
38664.1,8078.34
38666.6,8086.64
38667.7,8097.69
38667.7,8811.76
38666.6,8822.81
38664.1,8831.11
38660,8838.76
38654.5,8845.46
38647.8,8850.97
38640.2,8855.06
38631.9,8857.57
38620.8,8858.66
38438.2,8858.66
38427.2,8857.57
38418.9,8855.06
38411.2,8850.97
38404.5,8845.46
38399,8838.76
38394.9,8831.11
38392.4,8822.81
38391.3,8811.76
38391.3,8097.69
38392.4,8086.64
38394.9,8078.34
38399,8070.69
38404.5,8063.99
38411.2,8058.48
38418.9,8054.39
38427.2,8051.88
38438.2,8050.79
38620.8,8050.79
Z" /> 
<path style="fill:#000000; fill-opacity:1.0; 
stroke:#000000; stroke-width:0; stroke-opacity:1; 
stroke-linecap:round; stroke-linejoin:round;fill-rule:evenodd;"
d="M 39131.9,8051.88
39140.2,8054.39
39147.8,8058.48
39154.5,8063.99
39160,8070.69
39164.1,8078.34
39166.6,8086.64
39167.7,8097.69
39167.7,8811.76
39166.6,8822.81
39164.1,8831.11
39160,8838.76
39154.5,8845.46
39147.8,8850.97
39140.2,8855.06
39131.9,8857.57
39120.8,8858.66
38938.2,8858.66
38927.2,8857.57
38918.9,8855.06
38911.2,8850.97
38904.5,8845.46
38899,8838.76
38894.9,8831.11
38892.4,8822.81
38891.3,8811.76
38891.3,8097.69
38892.4,8086.64
38894.9,8078.34
38899,8070.69
38904.5,8063.99
38911.2,8058.48
38918.9,8054.39
38927.2,8051.88
38938.2,8050.79
39120.8,8050.79
Z" /> 
<path style="fill:#000000; fill-opacity:1.0; 
stroke:#000000; stroke-width:0; stroke-opacity:1; 
stroke-linecap:round; stroke-linejoin:round;fill-rule:evenodd;"
d="M 39631.9,8051.88
39640.2,8054.39
39647.8,8058.48
39654.5,8063.99
39660,8070.69
39664.1,8078.34
39666.6,8086.64
39667.7,8097.69
39667.7,8811.76
39666.6,8822.81
39664.1,8831.11
39660,8838.76
39654.5,8845.46
39647.8,8850.97
39640.2,8855.06
39631.9,8857.57
39620.8,8858.66
39438.2,8858.66
39427.2,8857.57
39418.9,8855.06
39411.2,8850.97
39404.5,8845.46
39399,8838.76
39394.9,8831.11
39392.4,8822.81
39391.3,8811.76
39391.3,8097.69
39392.4,8086.64
39394.9,8078.34
39399,8070.69
39404.5,8063.99
39411.2,8058.48
39418.9,8054.39
39427.2,8051.88
39438.2,8050.79
39620.8,8050.79
Z" /> 
<path style="fill:#000000; fill-opacity:1.0; 
stroke:#000000; stroke-width:0; stroke-opacity:1; 
stroke-linecap:round; stroke-linejoin:round;fill-rule:evenodd;"
d="M 24936.5,8210.03
24951.3,8214.53
24965,8221.84
24977,8231.67
24986.8,8243.66
24994.1,8257.34
24998.6,8272.18
25000.4,8290.02
25000.4,8619.42
24998.6,8637.27
24994.1,8652.11
24986.8,8665.79
24977,8677.77
24965,8687.61
24951.3,8694.92
24936.5,8699.42
24918.6,8701.18
24490.8,8701.18
24473,8699.42
24458.1,8694.92
24444.4,8687.61
24432.5,8677.77
24422.6,8665.79
24415.3,8652.11
24410.8,8637.27
24409.1,8619.42
24409.1,8290.02
24410.8,8272.18
24415.3,8257.34
24422.6,8243.66
24432.5,8231.67
24444.4,8221.84
24458.1,8214.53
24473,8210.03
24490.8,8208.27
24918.6,8208.27
Z" /> 
<path style="fill:#000000; fill-opacity:1.0; 
stroke:#000000; stroke-width:0; stroke-opacity:1; 
stroke-linecap:round; stroke-linejoin:round;fill-rule:evenodd;"
d="M 28037.2,8170.65
28052,8175.13
28065.6,8182.4
28077.5,8192.19
28087.3,8204.11
28094.6,8217.72
28099,8232.48
28100.8,8250.25
28100.8,8541.09
28099,8558.86
28094.6,8573.62
28087.3,8587.23
28077.5,8599.15
28065.6,8608.94
28052,8616.21
28037.2,8620.69
28019.4,8622.44
27768,8622.44
27750.2,8620.69
27735.4,8616.21
27721.8,8608.94
27709.9,8599.15
27700.1,8587.23
27692.8,8573.62
27688.4,8558.86
27686.6,8541.09
27686.6,8250.25
27688.4,8232.48
27692.8,8217.72
27700.1,8204.11
27709.9,8192.19
27721.8,8182.4
27735.4,8175.13
27750.2,8170.65
27768,8168.9
28019.4,8168.9
Z" /> 
<path style="fill:#000000; fill-opacity:1.0; 
stroke:#000000; stroke-width:0; stroke-opacity:1; 
stroke-linecap:round; stroke-linejoin:round;fill-rule:evenodd;"
d="M 20369.9,7944.27
20384.6,7948.75
20398.2,7956.02
20410.2,7965.81
20420,7977.73
20427.2,7991.34
20431.7,8006.1
20433.5,8023.87
20433.5,8275.34
20431.7,8293.11
20427.2,8307.87
20420,8321.48
20410.2,8333.4
20398.2,8343.19
20384.6,8350.46
20369.9,8354.94
20352.1,8356.69
20061.3,8356.69
20043.5,8354.94
20028.7,8350.46
20015.1,8343.19
20003.2,8333.4
19993.4,8321.48
19986.1,8307.87
19981.7,8293.11
19979.9,8275.34
19979.9,8023.87
19981.7,8006.1
19986.1,7991.34
19993.4,7977.73
20003.2,7965.81
20015.1,7956.02
20028.7,7948.75
20043.5,7944.27
20061.3,7942.52
20352.1,7942.52
Z" /> 
<path style="fill:#000000; fill-opacity:1.0; 
stroke:#000000; stroke-width:0; stroke-opacity:1; 
stroke-linecap:round; stroke-linejoin:round;fill-rule:evenodd;"
d="M 19680.9,7944.27
19695.7,7948.75
19709.3,7956.02
19721.2,7965.81
19731,7977.73
19738.3,7991.34
19742.7,8006.1
19744.5,8023.87
19744.5,8275.34
19742.7,8293.11
19738.3,8307.87
19731,8321.48
19721.2,8333.4
19709.3,8343.19
19695.7,8350.46
19680.9,8354.94
19663.1,8356.69
19372.3,8356.69
19354.5,8354.94
19339.8,8350.46
19326.2,8343.19
19314.2,8333.4
19304.4,8321.48
19297.2,8307.87
19292.7,8293.11
19290.9,8275.34
19290.9,8023.87
19292.7,8006.1
19297.2,7991.34
19304.4,7977.73
19314.2,7965.81
19326.2,7956.02
19339.8,7948.75
19354.5,7944.27
19372.3,7942.52
19663.1,7942.52
Z" /> 
<path style="fill:#000000; fill-opacity:1.0; 
stroke:#000000; stroke-width:0; stroke-opacity:1; 
stroke-linecap:round; stroke-linejoin:round;fill-rule:evenodd;"
d="M 30064.8,7698.21
30079.5,7702.69
30093.1,7709.96
30105.1,7719.75
30114.8,7731.67
30122.1,7745.28
30126.6,7760.04
30128.3,7777.81
30128.3,8068.65
30126.6,8086.42
30122.1,8101.18
30114.8,8114.79
30105.1,8126.71
30093.1,8136.5
30079.5,8143.77
30064.8,8148.25
30047,8150
29795.5,8150
29777.8,8148.25
29763,8143.77
29749.4,8136.5
29737.5,8126.71
29727.7,8114.79
29720.4,8101.18
29715.9,8086.42
29714.2,8068.65
29714.2,7777.81
29715.9,7760.04
29720.4,7745.28
29727.7,7731.67
29737.5,7719.75
29749.4,7709.96
29763,7702.69
29777.8,7698.21
29795.5,7696.46
30047,7696.46
Z" /> 
<path style="fill:#000000; fill-opacity:1.0; 
stroke:#000000; stroke-width:0; stroke-opacity:1; 
stroke-linecap:round; stroke-linejoin:round;fill-rule:evenodd;"
d="M 18617.9,7668.68
18632.7,7673.16
18646.3,7680.43
18658.2,7690.22
18668,7702.14
18675.3,7715.75
18679.7,7730.51
18681.5,7748.28
18681.5,7999.75
18679.7,8017.52
18675.3,8032.28
18668,8045.89
18658.2,8057.81
18646.3,8067.6
18632.7,8074.87
18617.9,8079.35
18600.1,8081.1
18309.3,8081.1
18291.5,8079.35
18276.8,8074.87
18263.2,8067.6
18251.2,8057.81
18241.5,8045.89
18234.2,8032.28
18229.7,8017.52
18228,7999.75
18228,7748.28
18229.7,7730.51
18234.2,7715.75
18241.5,7702.14
18251.2,7690.22
18263.2,7680.43
18276.8,7673.16
18291.5,7668.68
18309.3,7666.93
18600.1,7666.93
Z" /> 
<path style="fill:#000000; fill-opacity:1.0; 
stroke:#000000; stroke-width:0; stroke-opacity:1; 
stroke-linecap:round; stroke-linejoin:round;fill-rule:evenodd;"
d="M 17928.9,7668.68
17943.7,7673.16
17957.3,7680.43
17969.2,7690.22
17979,7702.14
17986.3,7715.75
17990.8,7730.51
17992.5,7748.28
17992.5,7999.75
17990.8,8017.52
17986.3,8032.28
17979,8045.89
17969.2,8057.81
17957.3,8067.6
17943.7,8074.87
17928.9,8079.35
17911.2,8081.1
17620.3,8081.1
17602.6,8079.35
17587.8,8074.87
17574.2,8067.6
17562.3,8057.81
17552.5,8045.89
17545.2,8032.28
17540.7,8017.52
17539,7999.75
17539,7748.28
17540.7,7730.51
17545.2,7715.75
17552.5,7702.14
17562.3,7690.22
17574.2,7680.43
17587.8,7673.16
17602.6,7668.68
17620.3,7666.93
17911.2,7666.93
Z" /> 
<path style="fill:#000000; fill-opacity:1.0; 
stroke:#000000; stroke-width:0; stroke-opacity:1; 
stroke-linecap:round; stroke-linejoin:round;fill-rule:evenodd;"
d="M 28037.2,7481.67
28052,7486.15
28065.6,7493.42
28077.5,7503.21
28087.3,7515.14
28094.6,7528.74
28099,7543.5
28100.8,7561.27
28100.8,7852.11
28099,7869.88
28094.6,7884.64
28087.3,7898.25
28077.5,7910.18
28065.6,7919.96
28052,7927.24
28037.2,7931.71
28019.4,7933.46
27768,7933.46
27750.2,7931.71
27735.4,7927.24
27721.8,7919.96
27709.9,7910.18
27700.1,7898.25
27692.8,7884.64
27688.4,7869.88
27686.6,7852.11
27686.6,7561.27
27688.4,7543.5
27692.8,7528.74
27700.1,7515.14
27709.9,7503.21
27721.8,7493.42
27735.4,7486.15
27750.2,7481.67
27768,7479.92
28019.4,7479.92
Z" /> 
<path style="fill:#000000; fill-opacity:1.0; 
stroke:#000000; stroke-width:0; stroke-opacity:1; 
stroke-linecap:round; stroke-linejoin:round;fill-rule:evenodd;"
d="M 16314.4,7265.14
16329.3,7269.65
16343,7276.96
16354.9,7286.79
16364.8,7298.78
16372.1,7312.45
16376.6,7327.29
16378.3,7345.14
16378.3,7772.97
16376.6,7790.82
16372.1,7805.66
16364.8,7819.33
16354.9,7831.32
16343,7841.16
16329.3,7848.46
16314.4,7852.97
16296.6,7854.72
15967.2,7854.72
15949.3,7852.97
15934.5,7848.46
15920.8,7841.16
15908.8,7831.32
15899,7819.33
15891.7,7805.66
15887.2,7790.82
15885.4,7772.97
15885.4,7345.14
15887.2,7327.29
15891.7,7312.45
15899,7298.78
15908.8,7286.79
15920.8,7276.96
15934.5,7269.65
15949.3,7265.14
15967.2,7263.39
16296.6,7263.39
Z" /> 
<path style="fill:#000000; fill-opacity:1.0; 
stroke:#000000; stroke-width:0; stroke-opacity:1; 
stroke-linecap:round; stroke-linejoin:round;fill-rule:evenodd;"
d="M 17121.5,7265.14
17136.4,7269.65
17150,7276.96
17162,7286.79
17171.9,7298.78
17179.2,7312.45
17183.7,7327.29
17185.4,7345.14
17185.4,7772.97
17183.7,7790.82
17179.2,7805.66
17171.9,7819.33
17162,7831.32
17150,7841.16
17136.4,7848.46
17121.5,7852.97
17103.7,7854.72
16774.3,7854.72
16756.4,7852.97
16741.6,7848.46
16727.9,7841.16
16715.9,7831.32
16706.1,7819.33
16698.8,7805.66
16694.3,7790.82
16692.5,7772.97
16692.5,7345.14
16694.3,7327.29
16698.8,7312.45
16706.1,7298.78
16715.9,7286.79
16727.9,7276.96
16741.6,7269.65
16756.4,7265.14
16774.3,7263.39
17103.7,7263.39
Z" /> 
<path style="fill:#000000; fill-opacity:1.0; 
stroke:#000000; stroke-width:0; stroke-opacity:1; 
stroke-linecap:round; stroke-linejoin:round;fill-rule:evenodd;"
d="M 29134.3,7579.13
28621.7,7579.13
28621.7,7184.65
29134.3,7184.65
Z" /> 
<path style="fill:#000000; fill-opacity:1.0; 
stroke:#000000; stroke-width:0; stroke-opacity:1; 
stroke-linecap:round; stroke-linejoin:round;fill-rule:evenodd;"
d="M 26289.3,6792.03
26297.6,6794.55
26305.3,6798.64
26312,6804.14
26317.5,6810.85
26321.6,6818.5
26324.1,6826.8
26325.2,6837.85
26325.2,7473.17
26324.1,7484.22
26321.6,7492.52
26317.5,7500.18
26312,7506.88
26305.3,7512.38
26297.6,7516.47
26289.3,7518.99
26278.3,7520.08
26095.7,7520.08
26084.7,7518.99
26076.4,7516.47
26068.7,7512.38
26062,7506.88
26056.5,7500.18
26052.4,7492.52
26049.9,7484.22
26048.8,7473.17
26048.8,6837.85
26049.9,6826.8
26052.4,6818.5
26056.5,6810.85
26062,6804.14
26068.7,6798.64
26076.4,6794.55
26084.7,6792.03
26095.7,6790.94
26278.3,6790.94
Z" /> 
<path style="fill:#000000; fill-opacity:1.0; 
stroke:#000000; stroke-width:0; stroke-opacity:1; 
stroke-linecap:round; stroke-linejoin:round;fill-rule:evenodd;"
d="M 26789.3,6792.03
26797.6,6794.55
26805.3,6798.64
26812,6804.14
26817.5,6810.85
26821.6,6818.5
26824.1,6826.8
26825.2,6837.85
26825.2,7473.17
26824.1,7484.22
26821.6,7492.52
26817.5,7500.18
26812,7506.88
26805.3,7512.38
26797.6,7516.47
26789.3,7518.99
26778.3,7520.08
26595.7,7520.08
26584.7,7518.99
26576.4,7516.47
26568.7,7512.38
26562,7506.88
26556.5,7500.18
26552.4,7492.52
26549.9,7484.22
26548.8,7473.17
26548.8,6837.85
26549.9,6826.8
26552.4,6818.5
26556.5,6810.85
26562,6804.14
26568.7,6798.64
26576.4,6794.55
26584.7,6792.03
26595.7,6790.94
26778.3,6790.94
Z" /> 
<path style="fill:#000000; fill-opacity:1.0; 
stroke:#000000; stroke-width:0; stroke-opacity:1; 
stroke-linecap:round; stroke-linejoin:round;fill-rule:evenodd;"
d="M 27289.3,6792.03
27297.6,6794.55
27305.3,6798.64
27312,6804.14
27317.5,6810.85
27321.6,6818.5
27324.1,6826.8
27325.2,6837.85
27325.2,7473.17
27324.1,7484.22
27321.6,7492.52
27317.5,7500.18
27312,7506.88
27305.3,7512.38
27297.6,7516.47
27289.3,7518.99
27278.3,7520.08
27095.7,7520.08
27084.7,7518.99
27076.4,7516.47
27068.7,7512.38
27062,7506.88
27056.5,7500.18
27052.4,7492.52
27049.9,7484.22
27048.8,7473.17
27048.8,6837.85
27049.9,6826.8
27052.4,6818.5
27056.5,6810.85
27062,6804.14
27068.7,6798.64
27076.4,6794.55
27084.7,6792.03
27095.7,6790.94
27278.3,6790.94
Z" /> 
<path style="fill:#000000; fill-opacity:1.0; 
stroke:#000000; stroke-width:0; stroke-opacity:1; 
stroke-linecap:round; stroke-linejoin:round;fill-rule:evenodd;"
d="M 25789.3,6792.03
25797.6,6794.55
25805.3,6798.64
25812,6804.14
25817.5,6810.85
25821.6,6818.5
25824.1,6826.8
25825.2,6837.85
25825.2,7473.17
25824.1,7484.22
25821.6,7492.52
25817.5,7500.18
25812,7506.88
25805.3,7512.38
25797.6,7516.47
25789.3,7518.99
25778.3,7520.08
25595.7,7520.08
25584.7,7518.99
25576.4,7516.47
25568.7,7512.38
25562,7506.88
25556.5,7500.18
25552.4,7492.52
25549.9,7484.22
25548.8,7473.17
25548.8,6837.85
25549.9,6826.8
25552.4,6818.5
25556.5,6810.85
25562,6804.14
25568.7,6798.64
25576.4,6794.55
25584.7,6792.03
25595.7,6790.94
25778.3,6790.94
Z" /> 
<path style="fill:#000000; fill-opacity:1.0; 
stroke:#000000; stroke-width:0; stroke-opacity:1; 
stroke-linecap:round; stroke-linejoin:round;fill-rule:evenodd;"
d="M 15579.8,6920.57
15593.8,6924.82
15606.7,6931.71
15618.1,6941
15627.3,6952.31
15634.2,6965.21
15638.5,6979.21
15640.2,6996.19
15640.2,7413.26
15638.5,7430.24
15634.2,7444.24
15627.3,7457.14
15618.1,7468.45
15606.7,7477.73
15593.8,7484.63
15579.8,7488.88
15562.9,7490.55
14358.4,7490.55
14341.4,7488.88
14327.4,7484.63
14314.5,7477.73
14303.2,7468.45
14293.9,7457.14
14287,7444.24
14282.8,7430.24
14281.1,7413.26
14281.1,6996.19
14282.8,6979.21
14287,6965.21
14293.9,6952.31
14303.2,6941
14314.5,6931.71
14327.4,6924.82
14341.4,6920.57
14358.4,6918.9
15562.9,6918.9
Z" /> 
<path style="fill:#000000; fill-opacity:1.0; 
stroke:#000000; stroke-width:0; stroke-opacity:1; 
stroke-linecap:round; stroke-linejoin:round;fill-rule:evenodd;"
d="M 30064.8,7009.23
30079.5,7013.71
30093.1,7020.98
30105.1,7030.77
30114.8,7042.7
30122.1,7056.3
30126.6,7071.06
30128.3,7088.83
30128.3,7379.67
30126.6,7397.44
30122.1,7412.2
30114.8,7425.81
30105.1,7437.74
30093.1,7447.52
30079.5,7454.8
30064.8,7459.27
30047,7461.02
29795.5,7461.02
29777.8,7459.27
29763,7454.8
29749.4,7447.52
29737.5,7437.74
29727.7,7425.81
29720.4,7412.2
29715.9,7397.44
29714.2,7379.67
29714.2,7088.83
29715.9,7071.06
29720.4,7056.3
29727.7,7042.7
29737.5,7030.77
29749.4,7020.98
29763,7013.71
29777.8,7009.23
29795.5,7007.48
30047,7007.48
Z" /> 
<path style="fill:#000000; fill-opacity:1.0; 
stroke:#000000; stroke-width:0; stroke-opacity:1; 
stroke-linecap:round; stroke-linejoin:round;fill-rule:evenodd;"
d="M 45720.3,6397.24
45813.5,6435.85
45813.5,6435.85
45897.4,6491.91
45968.7,6563.25
46024.8,6647.14
46063.4,6740.36
46083.1,6839.32
46083.1,6940.21
46063.4,7039.17
46050,7071.4
46024.8,7132.38
45968.7,7216.28
45897.4,7287.62
45813.5,7343.67
45813.5,7343.67
45813.5,7343.67
45720.3,7382.29
45621.3,7401.97
45520.4,7401.97
45421.5,7382.29
45328.2,7343.67
45328.2,7343.67
45328.2,7343.67
45244.4,7287.62
45173,7216.28
45117,7132.38
45091.7,7071.4
45078.3,7039.17
45058.7,6940.21
45058.7,6839.32
45078.3,6740.36
45117,6647.14
45173,6563.25
45244.4,6491.91
45328.2,6435.85
45328.2,6435.85
45421.5,6397.24
45520.4,6377.56
45621.3,6377.56
Z" /> 
<path style="fill:#000000; fill-opacity:1.0; 
stroke:#000000; stroke-width:0; stroke-opacity:1; 
stroke-linecap:round; stroke-linejoin:round;fill-rule:evenodd;"
d="M 23189.4,7264.17
22204.3,7264.17
22204.3,6633.46
23189.4,6633.46
Z" /> 
<path style="fill:#000000; fill-opacity:1.0; 
stroke:#000000; stroke-width:0; stroke-opacity:1; 
stroke-linecap:round; stroke-linejoin:round;fill-rule:evenodd;"
d="M 34316.9,6103.06
34325.2,6105.57
34332.9,6109.66
34339.6,6115.17
34345.1,6121.87
34349.1,6129.52
34351.7,6137.82
34352.8,6148.87
34352.8,6862.94
34351.7,6873.99
34349.1,6882.29
34345.1,6889.94
34339.6,6896.64
34332.9,6902.15
34325.2,6906.24
34316.9,6908.75
34305.9,6909.84
34123.3,6909.84
34112.2,6908.75
34103.9,6906.24
34096.3,6902.15
34089.6,6896.64
34084.1,6889.94
34080,6882.29
34077.5,6873.99
34076.4,6862.94
34076.4,6148.87
34077.5,6137.82
34080,6129.52
34084.1,6121.87
34089.6,6115.17
34096.3,6109.66
34103.9,6105.57
34112.2,6103.06
34123.3,6101.97
34305.9,6101.97
Z" /> 
<path style="fill:#000000; fill-opacity:1.0; 
stroke:#000000; stroke-width:0; stroke-opacity:1; 
stroke-linecap:round; stroke-linejoin:round;fill-rule:evenodd;"
d="M 39631.9,6103.06
39640.2,6105.57
39647.8,6109.66
39654.5,6115.17
39660,6121.87
39664.1,6129.52
39666.6,6137.82
39667.7,6148.87
39667.7,6862.94
39666.6,6873.99
39664.1,6882.29
39660,6889.94
39654.5,6896.64
39647.8,6902.15
39640.2,6906.24
39631.9,6908.75
39620.8,6909.84
39438.2,6909.84
39427.2,6908.75
39418.9,6906.24
39411.2,6902.15
39404.5,6896.64
39399,6889.94
39394.9,6882.29
39392.4,6873.99
39391.3,6862.94
39391.3,6148.87
39392.4,6137.82
39394.9,6129.52
39399,6121.87
39404.5,6115.17
39411.2,6109.66
39418.9,6105.57
39427.2,6103.06
39438.2,6101.97
39620.8,6101.97
Z" /> 
<path style="fill:#000000; fill-opacity:1.0; 
stroke:#000000; stroke-width:0; stroke-opacity:1; 
stroke-linecap:round; stroke-linejoin:round;fill-rule:evenodd;"
d="M 39131.9,6103.06
39140.2,6105.57
39147.8,6109.66
39154.5,6115.17
39160,6121.87
39164.1,6129.52
39166.6,6137.82
39167.7,6148.87
39167.7,6862.94
39166.6,6873.99
39164.1,6882.29
39160,6889.94
39154.5,6896.64
39147.8,6902.15
39140.2,6906.24
39131.9,6908.75
39120.8,6909.84
38938.2,6909.84
38927.2,6908.75
38918.9,6906.24
38911.2,6902.15
38904.5,6896.64
38899,6889.94
38894.9,6882.29
38892.4,6873.99
38891.3,6862.94
38891.3,6148.87
38892.4,6137.82
38894.9,6129.52
38899,6121.87
38904.5,6115.17
38911.2,6109.66
38918.9,6105.57
38927.2,6103.06
38938.2,6101.97
39120.8,6101.97
Z" /> 
<path style="fill:#000000; fill-opacity:1.0; 
stroke:#000000; stroke-width:0; stroke-opacity:1; 
stroke-linecap:round; stroke-linejoin:round;fill-rule:evenodd;"
d="M 32816.9,6103.06
32825.2,6105.57
32832.9,6109.66
32839.6,6115.17
32845.1,6121.87
32849.1,6129.52
32851.7,6137.82
32852.8,6148.87
32852.8,6862.94
32851.7,6873.99
32849.1,6882.29
32845.1,6889.94
32839.6,6896.64
32832.9,6902.15
32825.2,6906.24
32816.9,6908.75
32805.9,6909.84
32623.3,6909.84
32612.2,6908.75
32603.9,6906.24
32596.3,6902.15
32589.6,6896.64
32584.1,6889.94
32580,6882.29
32577.5,6873.99
32576.4,6862.94
32576.4,6148.87
32577.5,6137.82
32580,6129.52
32584.1,6121.87
32589.6,6115.17
32596.3,6109.66
32603.9,6105.57
32612.2,6103.06
32623.3,6101.97
32805.9,6101.97
Z" /> 
<path style="fill:#000000; fill-opacity:1.0; 
stroke:#000000; stroke-width:0; stroke-opacity:1; 
stroke-linecap:round; stroke-linejoin:round;fill-rule:evenodd;"
d="M 38631.9,6103.06
38640.2,6105.57
38647.8,6109.66
38654.5,6115.17
38660,6121.87
38664.1,6129.52
38666.6,6137.82
38667.7,6148.87
38667.7,6862.94
38666.6,6873.99
38664.1,6882.29
38660,6889.94
38654.5,6896.64
38647.8,6902.15
38640.2,6906.24
38631.9,6908.75
38620.8,6909.84
38438.2,6909.84
38427.2,6908.75
38418.9,6906.24
38411.2,6902.15
38404.5,6896.64
38399,6889.94
38394.9,6882.29
38392.4,6873.99
38391.3,6862.94
38391.3,6148.87
38392.4,6137.82
38394.9,6129.52
38399,6121.87
38404.5,6115.17
38411.2,6109.66
38418.9,6105.57
38427.2,6103.06
38438.2,6101.97
38620.8,6101.97
Z" /> 
<path style="fill:#000000; fill-opacity:1.0; 
stroke:#000000; stroke-width:0; stroke-opacity:1; 
stroke-linecap:round; stroke-linejoin:round;fill-rule:evenodd;"
d="M 38131.9,6103.06
38140.2,6105.57
38147.8,6109.66
38154.5,6115.17
38160,6121.87
38164.1,6129.52
38166.6,6137.82
38167.7,6148.87
38167.7,6862.94
38166.6,6873.99
38164.1,6882.29
38160,6889.94
38154.5,6896.64
38147.8,6902.15
38140.2,6906.24
38131.9,6908.75
38120.8,6909.84
37938.2,6909.84
37927.2,6908.75
37918.9,6906.24
37911.2,6902.15
37904.5,6896.64
37899,6889.94
37894.9,6882.29
37892.4,6873.99
37891.3,6862.94
37891.3,6148.87
37892.4,6137.82
37894.9,6129.52
37899,6121.87
37904.5,6115.17
37911.2,6109.66
37918.9,6105.57
37927.2,6103.06
37938.2,6101.97
38120.8,6101.97
Z" /> 
<path style="fill:#000000; fill-opacity:1.0; 
stroke:#000000; stroke-width:0; stroke-opacity:1; 
stroke-linecap:round; stroke-linejoin:round;fill-rule:evenodd;"
d="M 33816.9,6103.06
33825.2,6105.57
33832.9,6109.66
33839.6,6115.17
33845.1,6121.87
33849.1,6129.52
33851.7,6137.82
33852.8,6148.87
33852.8,6862.94
33851.7,6873.99
33849.1,6882.29
33845.1,6889.94
33839.6,6896.64
33832.9,6902.15
33825.2,6906.24
33816.9,6908.75
33805.9,6909.84
33623.3,6909.84
33612.2,6908.75
33603.9,6906.24
33596.3,6902.15
33589.6,6896.64
33584.1,6889.94
33580,6882.29
33577.5,6873.99
33576.4,6862.94
33576.4,6148.87
33577.5,6137.82
33580,6129.52
33584.1,6121.87
33589.6,6115.17
33596.3,6109.66
33603.9,6105.57
33612.2,6103.06
33623.3,6101.97
33805.9,6101.97
Z" /> 
<path style="fill:#000000; fill-opacity:1.0; 
stroke:#000000; stroke-width:0; stroke-opacity:1; 
stroke-linecap:round; stroke-linejoin:round;fill-rule:evenodd;"
d="M 33316.9,6103.06
33325.2,6105.57
33332.9,6109.66
33339.6,6115.17
33345.1,6121.87
33349.1,6129.52
33351.7,6137.82
33352.8,6148.87
33352.8,6862.94
33351.7,6873.99
33349.1,6882.29
33345.1,6889.94
33339.6,6896.64
33332.9,6902.15
33325.2,6906.24
33316.9,6908.75
33305.9,6909.84
33123.3,6909.84
33112.2,6908.75
33103.9,6906.24
33096.3,6902.15
33089.6,6896.64
33084.1,6889.94
33080,6882.29
33077.5,6873.99
33076.4,6862.94
33076.4,6148.87
33077.5,6137.82
33080,6129.52
33084.1,6121.87
33089.6,6115.17
33096.3,6109.66
33103.9,6105.57
33112.2,6103.06
33123.3,6101.97
33305.9,6101.97
Z" /> 
</g> 
</svg>
