<?xml version="1.0" standalone="no"?>
 <!DOCTYPE svg PUBLIC "-//W3C//DTD SVG 1.1//EN" 
 "http://www.w3.org/Graphics/SVG/1.1/DTD/svg11.dtd"> 
<svg xmlns="http://www.w3.org/2000/svg" version="1.1" 
    width="29.7002cm" height="21.0007cm" viewBox="0 0 116930 82680 ">
<title>SVG Picture created as PwmBrick-B_Mask.svg date 2020/11/29 12:29:36 </title>
  <desc>Picture generated by PCBNEW </desc>
<g style="fill:#000000; fill-opacity:1;stroke:#000000; stroke-opacity:1;
stroke-linecap:round; stroke-linejoin:round; "
 transform="translate(0 0) scale(1 1)">
</g>
<g style="fill:#000000; fill-opacity:0.0; 
stroke:#000000; stroke-width:-0.000393701; stroke-opacity:1; 
stroke-linecap:round; stroke-linejoin:round;">
</g>
<g style="fill:#000000; fill-opacity:1.0; 
stroke:#000000; stroke-width:0; stroke-opacity:1; 
stroke-linecap:round; stroke-linejoin:round;">
<path style="fill:#000000; fill-opacity:1.0; 
stroke:#000000; stroke-width:0; stroke-opacity:1; 
stroke-linecap:round; stroke-linejoin:round;fill-rule:evenodd;"
d="M 15585.7,14054.4
15632.2,14068.4
15675,14091.3
15712.5,14122.1
15743.3,14159.7
15766.2,14202.5
15780.3,14248.9
15783.9,14285.1
15783.9,14565.3
15780.3,14601.5
15766.2,14647.9
15743.3,14690.7
15712.5,14728.3
15675,14759.1
15632.2,14781.9
15585.7,14796
15537.4,14800.8
15489.1,14796
15442.6,14781.9
15399.8,14759.1
15362.3,14728.3
15331.5,14690.7
15308.6,14647.9
15294.5,14601.5
15290.9,14565.3
15290.9,14285.1
15294.5,14248.9
15308.6,14202.5
15331.5,14159.7
15362.3,14122.1
15399.8,14091.3
15442.6,14068.4
15489.1,14054.4
15537.4,14049.6
Z" /> 
<path style="fill:#000000; fill-opacity:1.0; 
stroke:#000000; stroke-width:0; stroke-opacity:1; 
stroke-linecap:round; stroke-linejoin:round;fill-rule:evenodd;"
d="M 18636.9,14054.4
18683.4,14068.4
18726.2,14091.3
18763.7,14122.1
18794.5,14159.7
18817.4,14202.5
18831.5,14248.9
18835,14285.1
18835,14565.3
18831.5,14601.5
18817.4,14647.9
18794.5,14690.7
18763.7,14728.3
18726.2,14759.1
18683.4,14781.9
18636.9,14796
18588.6,14800.8
18540.3,14796
18493.8,14781.9
18451,14759.1
18413.5,14728.3
18382.7,14690.7
18359.8,14647.9
18345.7,14601.5
18342.1,14565.3
18342.1,14285.1
18345.7,14248.9
18359.8,14202.5
18382.7,14159.7
18413.5,14122.1
18451,14091.3
18493.8,14068.4
18540.3,14054.4
18588.6,14049.6
Z" /> 
<path style="fill:#000000; fill-opacity:1.0; 
stroke:#000000; stroke-width:0; stroke-opacity:1; 
stroke-linecap:round; stroke-linejoin:round;fill-rule:evenodd;"
d="M 18589.4,12519.8
18647,12537.2
18700.1,12565.6
18746.6,12603.8
18784.8,12650.3
18813.1,12703.4
18830.6,12761
18835,12805.9
18835,13052.4
18830.6,13097.3
18813.1,13154.9
18784.8,13208
18784.8,13208
18784.8,13208
18746.6,13254.5
18724.3,13272.8
18700.1,13292.7
18647,13321
18589.4,13338.5
18529.5,13344.4
18469.6,13338.5
18412,13321
18359,13292.7
18312.5,13254.5
18301.9,13241.6
18295,13234.7
18287,13229.4
18278.1,13225.7
18268.6,13223.8
18259,13223.8
18249.5,13225.7
18240.6,13229.4
18232.6,13234.7
18225.8,13241.6
18220.4,13249.6
18216.7,13258.5
18214.8,13268
18214.8,13277.6
18216.7,13287.1
18217.9,13290.4
18224.8,13325
18224.8,13360
18218,13394.3
18204.6,13426.6
18204.6,13426.6
18185.2,13455.7
18160.4,13480.4
18131.3,13499.9
18131.3,13499.9
18131.3,13499.9
18099,13513.3
18064.7,13520.1
18029.8,13520.1
17995.5,13513.3
17963.1,13499.9
17963.1,13499.9
17963.1,13499.9
17934.1,13480.4
17909.3,13455.7
17889.9,13426.6
17889.9,13426.6
17876.5,13394.3
17869.7,13360
17869.7,13325
17876.5,13290.7
17889.9,13258.4
17895.8,13249.6
17905.7,13234.7
17909.3,13229.3
17934.1,13204.6
17962.6,13185.5
17963.1,13185.2
17963.1,13185.2
17995.5,13171.8
18029.8,13165
18064.7,13165
18099,13171.8
18131.3,13185.2
18131.3,13185.2
18131.9,13185.5
18160.4,13204.6
18166.6,13210.7
18174,13216.8
18182.5,13221.4
18191.8,13224.2
18201.4,13225.1
18211,13224.2
18220.2,13221.4
18228.7,13216.8
18236.2,13210.7
18242.3,13203.3
18246.8,13194.8
18249.6,13185.5
18250.6,13175.9
18249.6,13166.3
18246.8,13157.1
18246.1,13155.7
18228.4,13097.3
18224,13052.4
18224,12805.9
18228.4,12761
18245.9,12703.4
18274.3,12650.3
18312.5,12603.8
18348.3,12574.4
18359,12565.6
18359,12565.6
18359,12565.6
18412,12537.2
18469.6,12519.8
18529.5,12513.9
Z" /> 
<path style="fill:#000000; fill-opacity:1.0; 
stroke:#000000; stroke-width:0; stroke-opacity:1; 
stroke-linecap:round; stroke-linejoin:round;fill-rule:evenodd;"
d="M 15656.3,12519.8
15713.9,12537.2
15767,12565.6
15813.5,12603.8
15851.7,12650.3
15880.1,12703.4
15897.5,12761
15902,12805.9
15902,13052.4
15897.5,13097.3
15879.4,13157.2
15877.5,13161.6
15875.7,13171.1
15875.7,13180.7
15877.5,13190.2
15881.2,13199.1
15886.6,13207.1
15893.4,13214
15901.4,13219.3
15910.3,13223
15919.8,13224.9
15929.5,13224.9
15938.9,13223
15947.8,13219.3
15955.9,13214
15959.4,13210.7
15965.6,13204.6
15994.1,13185.5
15994.6,13185.2
15994.6,13185.2
16026.9,13171.8
16061.3,13165
16096.2,13165
16130.5,13171.8
16162.8,13185.2
16162.8,13185.2
16163.4,13185.5
16191.9,13204.6
16216.7,13229.3
16220.3,13234.7
16230.2,13249.6
16236.1,13258.4
16249.5,13290.7
16256.3,13325
16256.3,13360
16249.5,13394.3
16236.1,13426.6
16236.1,13426.6
16216.7,13455.7
16191.9,13480.4
16162.8,13499.9
16162.8,13499.9
16162.8,13499.9
16130.5,13513.3
16096.2,13520.1
16061.3,13520.1
16026.9,13513.3
15994.6,13499.9
15994.6,13499.9
15994.6,13499.9
15965.6,13480.4
15940.8,13455.7
15921.4,13426.6
15921.4,13426.6
15908,13394.3
15901.2,13360
15901.2,13325
15908.2,13289.8
15910.4,13282.4
15911.4,13272.8
15910.4,13263.2
15907.6,13254
15903.1,13245.4
15897,13238
15889.5,13231.9
15881,13227.3
15871.8,13224.5
15862.2,13223.6
15852.6,13224.5
15843.3,13227.3
15834.8,13231.9
15827.4,13238
15824.1,13241.6
15813.5,13254.5
15767,13292.7
15713.9,13321
15656.3,13338.5
15596.5,13344.4
15536.6,13338.5
15479,13321
15425.9,13292.7
15401.7,13272.8
15379.4,13254.5
15368.8,13241.6
15341.2,13208
15312.8,13154.9
15295.4,13097.3
15290.9,13052.4
15290.9,12805.9
15295.4,12761
15312.8,12703.4
15341.2,12650.3
15379.4,12603.8
15415.2,12574.4
15425.9,12565.6
15425.9,12565.6
15425.9,12565.6
15479,12537.2
15536.6,12519.8
15596.5,12513.9
Z" /> 
<path style="fill:#000000; fill-opacity:1.0; 
stroke:#000000; stroke-width:0; stroke-opacity:1; 
stroke-linecap:round; stroke-linejoin:round;fill-rule:evenodd;"
d="M 36775.9,12468.6
36815.4,12484.9
36815.4,12484.9
36850.9,12508.7
36881.1,12538.9
36881.1,12538.9
36904.8,12574.4
36917.1,12604.1
36921.7,12612.6
36927.8,12620.1
36935.3,12626.2
36943.8,12630.7
36953,12633.5
36962.6,12634.5
36972.2,12633.5
36981.4,12630.7
36989.9,12626.2
36997.4,12620.1
37003.5,12612.6
37008.1,12604.1
37020.4,12574.4
37044.1,12538.9
37044.1,12538.9
37074.3,12508.7
37109.8,12484.9
37109.8,12484.9
37149.3,12468.6
37191.2,12460.2
37234,12460.2
37275.9,12468.6
37315.4,12484.9
37315.4,12484.9
37350.9,12508.7
37381.1,12538.9
37381.1,12538.9
37404.8,12574.4
37417.1,12604.1
37421.7,12612.6
37427.8,12620.1
37435.3,12626.2
37443.8,12630.7
37453,12633.5
37462.6,12634.5
37472.2,12633.5
37481.4,12630.7
37489.9,12626.2
37497.4,12620.1
37503.5,12612.6
37508.1,12604.1
37520.4,12574.4
37544.1,12538.9
37544.1,12538.9
37574.3,12508.7
37609.8,12484.9
37609.8,12484.9
37649.3,12468.6
37691.2,12460.2
37734,12460.2
37775.9,12468.6
37815.4,12484.9
37815.4,12484.9
37850.9,12508.7
37881.1,12538.9
37881.1,12538.9
37904.8,12574.4
37917.1,12604.1
37921.7,12612.6
37927.8,12620.1
37935.3,12626.2
37943.8,12630.7
37953,12633.5
37962.6,12634.5
37972.2,12633.5
37981.4,12630.7
37989.9,12626.2
37997.4,12620.1
38003.5,12612.6
38008.1,12604.1
38020.4,12574.4
38044.1,12538.9
38044.1,12538.9
38074.3,12508.7
38109.8,12484.9
38109.8,12484.9
38149.3,12468.6
38191.2,12460.2
38234,12460.2
38275.9,12468.6
38315.4,12484.9
38315.4,12484.9
38350.9,12508.7
38381.1,12538.9
38381.1,12538.9
38404.8,12574.4
38417.1,12604.1
38421.7,12612.6
38427.8,12620.1
38435.3,12626.2
38443.8,12630.7
38453,12633.5
38462.6,12634.5
38472.2,12633.5
38481.4,12630.7
38489.9,12626.2
38497.4,12620.1
38503.5,12612.6
38508.1,12604.1
38520.4,12574.4
38544.1,12538.9
38544.1,12538.9
38574.3,12508.7
38609.8,12484.9
38609.8,12484.9
38649.3,12468.6
38691.2,12460.2
38734,12460.2
38775.9,12468.6
38815.4,12484.9
38815.4,12484.9
38850.9,12508.7
38881.1,12538.9
38881.1,12538.9
38905.5,12575.5
38911.7,12582.9
38919.1,12589
38927.6,12593.6
38936.9,12596.4
38946.5,12597.3
38956.1,12596.4
38965.3,12593.6
38973.8,12589
38981.3,12582.9
38987.4,12575.5
38991.9,12566.9
38994.7,12557.7
38995.7,12548.1
38995.7,12460.2
39429.5,12460.2
39429.5,12894.1
38995.7,12894.1
38995.7,12806.2
38994.7,12796.6
38991.9,12787.4
38987.4,12778.9
38981.3,12771.4
38973.8,12765.3
38965.3,12760.7
38956.1,12757.9
38946.5,12757
38936.9,12757.9
38927.6,12760.7
38919.1,12765.3
38911.7,12771.4
38905.5,12778.9
38889.4,12803.1
38881.1,12815.4
38850.9,12845.7
38833,12857.6
38815.4,12869.4
38775.9,12885.8
38734,12894.1
38691.2,12894.1
38649.3,12885.8
38609.8,12869.4
38592.2,12857.6
38574.3,12845.7
38544.1,12815.4
38531.5,12796.6
38520.4,12779.9
38508.1,12750.2
38503.5,12741.7
38497.4,12734.3
38489.9,12728.2
38481.4,12723.6
38472.2,12720.8
38462.6,12719.9
38453,12720.8
38443.8,12723.6
38435.3,12728.2
38427.8,12734.3
38421.7,12741.7
38417.1,12750.2
38404.8,12779.9
38393.7,12796.6
38381.1,12815.4
38350.9,12845.7
38333,12857.6
38315.4,12869.4
38275.9,12885.8
38234,12894.1
38191.2,12894.1
38149.3,12885.8
38109.8,12869.4
38092.2,12857.6
38074.3,12845.7
38044.1,12815.4
38031.5,12796.6
38020.4,12779.9
38008.1,12750.2
38003.5,12741.7
37997.4,12734.3
37989.9,12728.2
37981.4,12723.6
37972.2,12720.8
37962.6,12719.9
37953,12720.8
37943.8,12723.6
37935.3,12728.2
37927.8,12734.3
37921.7,12741.7
37917.1,12750.2
37904.8,12779.9
37893.7,12796.6
37881.1,12815.4
37850.9,12845.7
37833,12857.6
37815.4,12869.4
37775.9,12885.8
37734,12894.1
37691.2,12894.1
37649.3,12885.8
37609.8,12869.4
37592.2,12857.6
37574.3,12845.7
37544.1,12815.4
37531.5,12796.6
37520.4,12779.9
37508.1,12750.2
37503.5,12741.7
37497.4,12734.3
37489.9,12728.2
37481.4,12723.6
37472.2,12720.8
37462.6,12719.9
37453,12720.8
37443.8,12723.6
37435.3,12728.2
37427.8,12734.3
37421.7,12741.7
37417.1,12750.2
37404.8,12779.9
37393.7,12796.6
37381.1,12815.4
37350.9,12845.7
37333,12857.6
37315.4,12869.4
37275.9,12885.8
37234,12894.1
37191.2,12894.1
37149.3,12885.8
37109.8,12869.4
37092.2,12857.6
37074.3,12845.7
37044.1,12815.4
37031.5,12796.6
37020.4,12779.9
37008.1,12750.2
37003.5,12741.7
36997.4,12734.3
36989.9,12728.2
36981.4,12723.6
36972.2,12720.8
36962.6,12719.9
36953,12720.8
36943.8,12723.6
36935.3,12728.2
36927.8,12734.3
36921.7,12741.7
36917.1,12750.2
36904.8,12779.9
36893.7,12796.6
36881.1,12815.4
36850.9,12845.7
36833,12857.6
36815.4,12869.4
36775.9,12885.8
36734,12894.1
36691.2,12894.1
36649.3,12885.8
36609.8,12869.4
36592.2,12857.6
36574.3,12845.7
36544.1,12815.4
36531.5,12796.6
36520.4,12779.9
36504,12740.4
36495.7,12698.5
36495.7,12655.8
36504,12613.9
36520.4,12574.4
36544.1,12538.9
36544.1,12538.9
36574.3,12508.7
36609.8,12484.9
36609.8,12484.9
36649.3,12468.6
36691.2,12460.2
36734,12460.2
Z" /> 
<path style="fill:#000000; fill-opacity:1.0; 
stroke:#000000; stroke-width:0; stroke-opacity:1; 
stroke-linecap:round; stroke-linejoin:round;fill-rule:evenodd;"
d="M 43426.2,10031
43485.2,10042.8
43596.3,10088.8
43696.3,10155.6
43781.4,10240.7
43848.2,10340.7
43894.3,10451.8
43917.7,10569.8
43917.7,10690.1
43894.3,10808
43848.2,10919.2
43781.4,11019.2
43696.3,11104.2
43596.3,11171.1
43485.2,11217.1
43426.2,11228.8
43367.2,11240.6
43246.9,11240.6
43188,11228.8
43129,11217.1
43017.8,11171.1
42917.8,11104.2
42832.8,11019.2
42766,10919.2
42719.9,10808
42696.5,10690.1
42696.5,10569.8
42719.9,10451.8
42766,10340.7
42832.8,10240.7
42917.8,10155.6
43017.8,10088.8
43129,10042.8
43188,10031
43246.9,10019.3
43367.2,10019.3
Z" /> 
<path style="fill:#000000; fill-opacity:1.0; 
stroke:#000000; stroke-width:0; stroke-opacity:1; 
stroke-linecap:round; stroke-linejoin:round;fill-rule:evenodd;"
d="M 15079.8,10031
15138.7,10042.8
15249.9,10088.8
15349.9,10155.6
15434.9,10240.7
15501.8,10340.7
15547.8,10451.8
15571.3,10569.8
15571.3,10690.1
15547.8,10808
15501.8,10919.2
15434.9,11019.2
15349.9,11104.2
15249.9,11171.1
15138.7,11217.1
15079.8,11228.8
15020.8,11240.6
14900.5,11240.6
14841.5,11228.8
14782.5,11217.1
14671.4,11171.1
14571.4,11104.2
14486.3,11019.2
14419.5,10919.2
14373.5,10808
14350,10690.1
14350,10569.8
14373.5,10451.8
14419.5,10340.7
14486.3,10240.7
14571.4,10155.6
14671.4,10088.8
14782.5,10042.8
14841.5,10031
14900.5,10019.3
15020.8,10019.3
Z" /> 
<path style="fill:#000000; fill-opacity:1.0; 
stroke:#000000; stroke-width:0; stroke-opacity:1; 
stroke-linecap:round; stroke-linejoin:round;fill-rule:evenodd;"
d="M 45720.3,7972.05
45813.5,8010.66
45813.5,8010.66
45897.4,8066.71
45968.7,8138.06
46024.8,8221.95
46063.4,8315.16
46083.1,8414.12
46083.1,8515.02
46063.4,8613.97
46024.8,8707.19
46024.8,8707.19
45968.7,8791.08
45897.4,8862.42
45813.5,8918.48
45813.5,8918.48
45813.5,8918.48
45720.3,8957.09
45621.3,8976.77
45520.4,8976.77
45421.5,8957.09
45328.2,8918.48
45328.2,8918.48
45328.2,8918.48
45244.4,8862.42
45173,8791.08
45117,8707.19
45117,8707.19
45078.3,8613.97
45058.7,8515.02
45058.7,8414.12
45078.3,8315.16
45117,8221.95
45173,8138.06
45244.4,8066.71
45328.2,8010.66
45328.2,8010.66
45421.5,7972.05
45520.4,7952.36
45621.3,7952.36
Z" /> 
<path style="fill:#000000; fill-opacity:1.0; 
stroke:#000000; stroke-width:0; stroke-opacity:1; 
stroke-linecap:round; stroke-linejoin:round;fill-rule:evenodd;"
d="M 45720.3,6397.24
45813.5,6435.85
45813.5,6435.85
45897.4,6491.91
45968.7,6563.25
46024.8,6647.14
46063.4,6740.36
46083.1,6839.32
46083.1,6940.21
46063.4,7039.17
46024.8,7132.38
46024.8,7132.38
45968.7,7216.28
45897.4,7287.62
45813.5,7343.67
45813.5,7343.67
45813.5,7343.67
45720.3,7382.29
45621.3,7401.97
45520.4,7401.97
45421.5,7382.29
45328.2,7343.67
45328.2,7343.67
45328.2,7343.67
45244.4,7287.62
45173,7216.28
45117,7132.38
45117,7132.38
45078.3,7039.17
45058.7,6940.21
45058.7,6839.32
45078.3,6740.36
45117,6647.14
45173,6563.25
45244.4,6491.91
45328.2,6435.85
45328.2,6435.85
45421.5,6397.24
45520.4,6377.56
45621.3,6377.56
Z" /> 
</g> 
</svg>
